<?xml version="1.0" standalone="no"?>
<!DOCTYPE svg PUBLIC "-//W3C//DTD SVG 20010904//EN"
 "http://www.w3.org/TR/2001/REC-SVG-20010904/DTD/svg10.dtd">
<svg version="1.0" xmlns="http://www.w3.org/2000/svg"
 width="1280.000000pt" height="916.000000pt" viewBox="0 0 1280.000000 916.000000"
 preserveAspectRatio="xMidYMid meet">

<g transform="translate(0.000000,916.000000) scale(0.100000,-0.100000)"
fill="#000000" stroke="none">
<path d="M4140 8330 c-250 -22 -459 -63 -690 -134 -41 -13 -118 -36 -170 -51
-52 -15 -112 -36 -132 -46 -21 -11 -44 -19 -52 -19 -13 0 -70 -23 -376 -152
-393 -165 -619 -321 -1023 -708 -125 -120 -356 -399 -391 -475 -8 -16 -23 -39
-34 -51 -27 -29 -121 -194 -166 -294 -21 -47 -56 -121 -77 -165 -21 -44 -46
-104 -54 -133 -9 -29 -24 -67 -35 -85 -10 -17 -26 -63 -35 -101 -8 -38 -19
-74 -24 -80 -11 -14 -46 -131 -65 -221 -11 -47 -44 -127 -105 -245 -156 -307
-171 -379 -146 -695 4 -55 12 -105 17 -112 6 -7 10 -56 10 -110 1 -65 6 -108
15 -127 8 -16 22 -52 30 -80 8 -28 21 -58 27 -66 16 -18 89 -207 106 -272 7
-26 22 -58 34 -70 12 -13 37 -44 56 -70 19 -26 45 -51 58 -57 50 -24 175 -5
259 37 48 25 123 111 150 172 11 25 54 96 97 158 42 62 76 123 76 134 0 25 63
159 114 242 22 37 36 72 36 93 0 18 7 77 16 131 23 142 3 292 -66 507 -27 84
-49 276 -39 350 22 180 148 459 311 693 107 153 314 388 430 488 111 94 309
231 433 298 71 39 242 116 256 116 5 0 32 11 61 25 138 64 411 136 623 165 44
6 103 15 130 20 57 11 202 25 389 39 107 8 155 7 290 -10 188 -22 345 -55 466
-98 354 -125 448 -168 630 -286 36 -24 82 -50 103 -59 49 -20 47 -48 -3 -56
-77 -13 -115 -52 -106 -108 6 -39 5 -39 -37 -51 -49 -15 -87 -47 -87 -73 0
-15 7 -12 35 17 39 38 59 44 69 19 11 -29 -36 -84 -72 -84 -51 0 -132 -73
-132 -117 1 -17 1 -17 12 1 15 27 58 66 72 66 6 0 12 -13 13 -30 2 -32 -34
-70 -91 -94 -33 -14 -86 -69 -86 -89 0 -7 7 -3 15 7 17 23 65 56 81 56 6 0 21
-9 34 -20 13 -11 27 -20 32 -20 4 0 8 -7 8 -15 0 -16 -25 -32 -61 -39 -58 -11
-134 -42 -131 -54 1 -8 -2 -11 -6 -8 -5 3 -17 -3 -26 -13 -21 -23 -38 -79 -26
-86 5 -3 12 6 16 20 15 62 119 101 144 55 14 -26 6 -52 -20 -65 -11 -6 -50
-25 -87 -43 -52 -25 -74 -43 -91 -72 -33 -57 -28 -78 8 -36 17 18 42 37 56 40
34 9 67 -2 60 -20 -3 -8 0 -14 7 -14 17 0 -62 -68 -101 -87 -46 -22 -92 -67
-92 -91 0 -17 4 -16 33 13 19 19 52 38 76 45 37 10 46 9 62 -6 31 -28 17 -80
-17 -67 -9 3 -14 -2 -14 -16 0 -14 -8 -23 -27 -27 -47 -11 -104 -44 -134 -77
-32 -35 -36 -58 -15 -76 12 -10 18 -7 30 16 53 104 243 125 221 25 -8 -37 -18
-44 -105 -67 -89 -24 -140 -59 -140 -96 0 -19 5 -29 15 -29 8 0 15 4 15 10 0
18 75 59 122 65 38 6 55 3 93 -16 41 -20 46 -26 43 -53 -3 -32 -3 -32 -103
-76 -104 -46 -165 -111 -143 -152 12 -25 32 -23 25 2 -3 11 2 29 11 39 19 22
126 78 157 82 26 3 85 -10 85 -20 0 -14 -26 -38 -77 -70 -75 -47 -143 -123
-143 -160 0 -20 7 -34 20 -41 23 -12 25 -8 8 19 -9 15 -7 24 12 47 31 38 125
114 140 114 7 0 25 8 41 17 36 22 53 8 53 -43 0 -32 -9 -45 -92 -125 -50 -49
-94 -100 -98 -113 -9 -37 -1 -60 21 -64 16 -3 18 -1 8 9 -21 21 -15 43 23 88
41 47 157 111 203 111 74 0 52 -63 -68 -193 -83 -91 -104 -137 -62 -137 13 0
18 5 15 18 -3 9 4 29 13 43 29 42 150 146 183 158 28 9 32 8 42 -14 15 -34
-10 -92 -78 -181 -30 -39 -57 -85 -60 -103 -9 -45 11 -39 37 11 53 106 157
208 211 208 29 0 58 -28 58 -57 0 -11 -38 -77 -85 -147 -61 -91 -85 -136 -85
-158 0 -41 18 -26 54 46 37 74 84 125 148 164 61 36 81 35 104 -9 13 -27 13
-32 -16 -88 -30 -60 -60 -95 -160 -186 -30 -28 -82 -80 -115 -116 -102 -111
-275 -382 -275 -430 0 -6 -9 -29 -19 -52 -27 -59 -54 -193 -48 -232 3 -18 0
-38 -6 -44 -6 -6 -7 -11 -1 -11 5 0 2 -5 -6 -10 -10 -7 -12 -12 -4 -17 6 -5
15 -19 19 -33 7 -24 6 -24 -8 -5 -14 18 -15 15 -21 -45 -12 -117 4 -379 24
-405 4 -5 11 -34 15 -63 7 -55 66 -256 85 -291 5 -11 10 -27 10 -36 0 -17 16
-59 51 -130 10 -22 19 -50 19 -62 0 -25 53 -128 114 -218 51 -77 158 -200 258
-294 75 -72 78 -76 78 -120 0 -26 11 -72 26 -106 14 -33 34 -83 44 -110 13
-34 30 -57 51 -69 33 -20 55 -57 46 -79 -4 -12 -22 -15 -71 -13 -78 2 -99 18
-145 111 -27 54 -32 76 -33 147 -2 82 0 102 15 126 13 20 -8 14 -29 -9 -16
-18 -19 -36 -19 -113 1 -50 7 -109 14 -131 17 -48 64 -120 104 -156 25 -23 27
-30 18 -48 -10 -17 -21 -21 -62 -21 -61 0 -83 19 -130 111 -28 55 -33 76 -35
152 -2 51 1 87 6 87 6 0 10 7 10 15 0 24 -14 18 -33 -14 -21 -36 -23 -139 -3
-205 8 -26 39 -80 70 -121 31 -41 56 -78 56 -83 0 -5 -14 -15 -30 -22 -27 -11
-36 -10 -66 6 -47 25 -70 58 -100 146 -26 78 -33 195 -12 216 8 8 8 12 1 12
-37 0 -56 -102 -36 -198 20 -96 20 -98 70 -159 48 -59 62 -115 33 -134 -17
-10 -37 -12 -27 -2 4 3 -14 14 -40 22 -41 14 -51 23 -70 61 -56 113 -69 226
-33 293 19 35 19 37 2 37 -11 0 -27 -9 -37 -20 -15 -16 -17 -34 -13 -127 4
-99 7 -115 40 -183 48 -101 53 -121 37 -131 -26 -17 -57 -9 -82 20 -33 40 -77
170 -84 253 -5 63 -4 68 22 92 25 23 26 26 8 26 -10 0 -28 -6 -38 -14 -16 -12
-18 -23 -12 -117 5 -81 13 -124 38 -192 30 -83 30 -88 15 -112 -26 -40 -56
-30 -99 33 -32 46 -79 218 -75 279 2 47 -2 56 -23 48 -21 -8 -8 -133 25 -255
30 -110 32 -152 10 -171 -35 -29 -68 21 -110 171 -14 52 -32 100 -38 105 -6 6
-22 25 -35 43 -12 17 -29 32 -37 32 -13 0 -13 -2 0 -16 9 -8 16 -20 16 -25 0
-5 9 -22 21 -38 21 -29 32 -66 49 -161 13 -73 -9 -146 -48 -161 -47 -18 -78
38 -103 186 -11 69 -41 143 -63 157 -16 11 -56 10 -56 -1 0 -5 8 -12 19 -16
10 -3 25 -20 34 -38 18 -34 47 -179 47 -232 0 -32 -32 -85 -52 -85 -22 0 -78
68 -78 95 0 53 -64 219 -94 244 -20 16 -46 8 -46 -16 0 -15 1 -15 13 1 13 17
14 17 25 -10 6 -16 21 -75 33 -132 28 -138 17 -193 -43 -207 -22 -6 -29 -2
-42 23 -8 16 -20 51 -27 78 -6 27 -25 93 -41 146 -23 77 -33 98 -48 98 -10 0
-21 -7 -24 -16 -9 -22 -8 -24 8 -18 18 7 23 -2 46 -88 30 -113 27 -156 -16
-212 l-36 -47 -24 28 c-26 30 -30 47 -39 168 -6 65 -12 89 -37 127 -30 47 -58
63 -58 32 0 -8 4 -13 9 -9 17 10 50 -51 60 -113 12 -76 -1 -171 -26 -189 -22
-17 -83 -17 -85 0 0 6 -2 55 -3 107 -3 127 -48 253 -76 209 -6 -9 -4 -15 6
-17 28 -6 48 -99 42 -196 -6 -96 -17 -116 -63 -116 -27 0 -34 17 -34 83 0 75
-28 219 -45 236 -23 23 -28 6 -10 -29 41 -79 42 -260 2 -282 -35 -18 -47 15
-50 128 -2 85 -6 105 -27 144 -24 43 -40 54 -48 32 -2 -6 6 -19 18 -30 26 -24
40 -73 40 -142 0 -86 -50 -150 -106 -136 -17 5 -24 13 -24 30 0 12 3 25 6 29
11 11 13 140 3 187 -10 44 -36 96 -45 87 -2 -2 3 -23 11 -47 17 -48 20 -148 5
-200 -5 -19 -21 -48 -36 -63 l-26 -28 -31 19 c-23 13 -31 24 -28 38 3 10 5 66
5 124 1 87 -2 110 -18 133 -18 26 -45 40 -29 15 4 -7 8 -15 9 -18 0 -3 3 -12
6 -20 4 -8 11 -36 17 -61 26 -114 -52 -228 -122 -176 -16 11 -16 20 -6 92 13
100 6 155 -26 185 -29 27 -29 27 -10 -25 39 -108 1 -241 -63 -221 -21 7 -42
77 -42 143 0 77 -53 164 -83 134 -5 -5 -1 -12 12 -16 32 -10 53 -70 49 -139
-5 -67 -24 -89 -73 -84 -24 2 -32 10 -42 38 -8 20 -10 53 -7 76 4 30 0 55 -16
93 -12 28 -26 51 -31 51 -5 0 0 -15 11 -32 20 -34 25 -81 14 -137 -5 -24 -16
-37 -47 -52 l-40 -21 -20 20 c-17 17 -19 32 -18 102 1 60 -2 89 -14 106 -20
30 -40 32 -21 1 21 -35 27 -73 17 -118 -8 -34 -39 -79 -54 -79 -17 0 -38 60
-42 115 -5 69 -24 119 -51 129 -15 6 -15 4 -2 -16 45 -70 39 -147 -13 -168
-23 -10 -33 -9 -58 6 -17 10 -31 22 -31 27 0 5 -10 5 -21 2 -13 -5 -19 -3 -15
3 3 5 -8 12 -24 15 -41 9 -59 48 -53 118 4 37 1 59 -6 64 -8 5 -10 -1 -5 -20
9 -37 -14 -113 -37 -120 -28 -9 -56 3 -62 25 -4 14 -11 18 -24 14 -11 -3 -14
-2 -7 3 23 17 25 92 4 140 -25 58 -34 52 -13 -7 15 -42 14 -48 -2 -85 -9 -22
-19 -34 -22 -27 -3 6 -9 9 -14 6 -6 -3 -2 -12 8 -19 10 -7 15 -17 11 -21 -4
-4 -26 12 -49 35 l-42 42 16 35 c20 41 21 48 5 38 -6 -4 -8 -3 -4 4 6 10 -23
97 -30 89 -2 -2 1 -20 7 -41 20 -74 -22 -118 -81 -86 -17 9 -19 19 -14 75 3
45 1 73 -9 91 -13 25 -14 23 -9 -30 5 -66 -13 -96 -59 -96 -34 0 -54 30 -45
66 7 26 -9 100 -23 108 -4 3 -7 -14 -7 -37 1 -41 0 -42 -34 -43 -36 -1 -50 9
-50 36 0 12 2 12 9 1 17 -27 21 8 5 48 -19 48 -34 53 -34 11 0 -17 -6 -33 -14
-36 -19 -7 -71 27 -56 36 15 9 9 52 -7 58 -7 2 -13 -4 -13 -12 0 -9 -7 -19
-15 -22 -24 -10 -45 15 -45 52 0 34 -16 44 -36 24 -14 -14 -44 -2 -44 16 0 8
-16 20 -36 29 -45 19 -122 76 -193 144 -31 29 -75 66 -98 82 -23 16 -44 38
-48 48 -3 10 -21 29 -39 42 -19 12 -40 33 -47 45 -8 13 -36 46 -62 73 -27 28
-46 54 -44 58 6 10 -19 34 -27 26 -3 -4 -6 1 -6 11 0 9 -22 38 -49 64 -33 32
-50 57 -53 77 -2 23 -11 34 -35 44 -18 8 -33 21 -33 28 0 8 -12 26 -28 41 -27
26 -56 75 -87 144 -9 20 -23 39 -31 42 -8 3 -14 12 -14 19 0 8 -9 22 -20 32
-11 10 -19 23 -18 29 2 13 -33 87 -48 101 -6 6 -23 44 -38 85 -15 41 -34 89
-41 105 -27 59 -76 196 -74 208 1 7 -12 43 -29 80 -18 38 -32 84 -32 102 0 19
-4 36 -9 40 -5 3 -15 22 -22 42 -20 60 -79 186 -85 180 -14 -13 46 -305 87
-422 9 -27 25 -77 35 -110 10 -33 21 -67 26 -75 4 -8 19 -46 34 -85 15 -38 31
-73 37 -76 5 -4 7 -11 4 -16 -4 -6 3 -27 13 -49 11 -21 20 -34 20 -29 0 11 29
-27 30 -39 0 -5 -9 -1 -20 9 -19 17 -19 15 2 -25 13 -24 33 -55 46 -69 14 -16
22 -36 20 -52 -3 -34 17 -58 42 -52 11 3 20 1 20 -5 0 -6 -8 -12 -17 -14 -14
-3 -12 -8 10 -32 15 -16 27 -34 27 -41 0 -7 7 -18 16 -26 13 -10 17 -10 24 0
11 19 24 -5 26 -46 1 -36 -9 -42 -26 -15 -8 11 -10 12 -7 2 4 -18 77 -61 93
-56 7 3 9 -5 6 -20 -2 -13 -11 -24 -19 -24 -13 0 -13 -3 -3 -15 7 -8 20 -15
30 -15 28 0 53 -35 41 -58 -13 -25 -5 -32 35 -32 42 0 53 -18 25 -41 -25 -20
-20 -39 9 -39 29 0 50 -11 50 -25 0 -7 -4 -15 -10 -17 -5 -1 -7 -13 -4 -25 5
-16 14 -23 32 -23 24 0 25 1 7 14 -18 13 -18 15 -2 40 23 34 40 34 22 -1 -13
-24 -13 -29 0 -36 9 -4 13 -12 10 -17 -3 -4 2 -10 10 -14 9 -3 12 -12 8 -22
-5 -14 -3 -16 11 -11 14 6 16 3 11 -14 -6 -19 -4 -21 22 -17 25 3 29 1 25 -14
-2 -10 -13 -25 -24 -32 -17 -12 -17 -14 -3 -20 9 -3 30 -6 45 -6 37 0 49 -19
24 -38 -18 -13 -17 -14 13 -10 35 5 45 -5 17 -16 -26 -10 -6 -21 32 -17 38 3
41 -1 18 -24 -9 -9 -13 -19 -10 -23 4 -3 10 -2 14 3 4 6 15 16 25 24 15 12 17
11 17 -9 0 -14 -8 -24 -21 -27 -15 -4 -17 -8 -8 -14 7 -4 28 -1 46 6 19 8 35
10 38 4 4 -5 3 -9 -2 -9 -4 0 -2 -4 5 -8 10 -7 10 -15 3 -36 -10 -24 -9 -26 8
-16 31 16 41 12 53 -21 7 -20 15 -28 25 -25 7 3 16 -1 19 -9 3 -7 19 -17 36
-20 27 -6 28 -8 14 -24 -22 -24 -20 -34 4 -26 14 5 20 2 20 -9 0 -9 8 -16 19
-16 25 0 38 -20 20 -31 -11 -7 -11 -9 3 -9 12 0 21 14 29 43 l13 42 6 -35 c4
-22 1 -41 -7 -51 -19 -23 -9 -27 44 -19 36 6 43 5 32 -4 -8 -6 -23 -22 -34
-35 l-20 -24 33 17 c31 16 32 16 32 -5 0 -15 4 -19 16 -15 42 16 64 18 65 5 0
-8 5 -3 10 10 5 13 12 22 14 19 3 -3 1 -18 -5 -34 -8 -21 -8 -30 0 -32 7 -3 4
-9 -7 -17 -27 -20 -8 -30 28 -15 28 12 33 12 45 -5 12 -16 11 -21 -3 -37 -9
-10 -13 -18 -8 -18 4 0 16 10 26 21 16 18 20 19 24 6 4 -8 19 -17 36 -21 31
-6 40 -32 14 -42 -22 -9 -18 -24 5 -24 11 0 20 7 20 15 0 8 5 15 10 15 6 0 10
-4 10 -9 0 -5 16 -12 36 -15 41 -8 55 -33 29 -52 -16 -12 -16 -14 -2 -19 8 -4
31 -2 50 3 56 16 92 -22 49 -54 -9 -7 -12 -14 -5 -14 6 0 15 4 18 10 3 5 14
14 25 20 15 8 18 6 16 -13 -2 -19 1 -23 23 -20 34 5 62 -13 42 -26 -7 -5 -10
-14 -6 -21 5 -8 11 -5 22 9 14 21 53 29 53 11 0 -5 8 -10 18 -10 18 0 42 -18
42 -31 0 -4 -8 -9 -17 -11 -15 -3 -15 -6 5 -17 18 -10 30 -10 51 -1 18 7 36 8
52 2 13 -5 30 -7 38 -4 10 3 13 -1 9 -15 -5 -18 -3 -19 22 -10 36 14 64 3 57
-23 -3 -11 -1 -18 4 -14 5 3 9 12 9 20 0 8 5 12 10 9 6 -3 7 -18 4 -32 -7 -26
-7 -26 17 -10 32 23 46 21 74 -9 19 -21 27 -24 44 -15 11 6 24 11 29 11 16 0
23 -31 12 -45 -9 -11 -6 -12 11 -8 17 5 20 3 14 -7 -6 -9 -1 -9 14 2 21 15 38
14 96 -2 6 -2 18 0 28 5 26 11 33 -2 12 -25 -19 -21 -51 -28 -39 -8 5 7 3 8
-6 3 -10 -6 -9 -11 5 -22 24 -17 40 -17 55 2 14 17 76 20 86 4 3 -6 1 -16 -5
-22 -14 -14 -14 -27 0 -27 5 0 8 4 5 9 -3 4 3 16 14 26 25 23 25 43 1 69 -29
31 -31 60 -4 64 17 3 24 -3 28 -25 4 -15 9 -35 12 -43 9 -22 3 -52 -13 -78
-19 -28 -10 -28 49 3 26 14 52 23 57 20 16 -10 12 -30 -10 -50 -11 -10 -18
-20 -15 -23 6 -6 44 40 45 55 0 6 -12 25 -26 42 -20 25 -23 34 -14 50 18 34
40 15 40 -34 0 -24 5 -47 11 -51 6 -3 9 -19 7 -35 -4 -26 -3 -27 11 -15 29 25
56 27 78 7 24 -22 33 -18 33 16 0 13 5 23 10 23 16 0 24 -30 11 -43 -6 -6 -11
-17 -11 -24 0 -9 13 -6 45 9 42 21 46 21 62 5 15 -15 15 -17 0 -23 -17 -6 -14
-24 4 -24 6 0 8 4 5 9 -3 5 2 15 11 22 15 12 16 12 11 -8 -5 -17 -2 -20 11
-16 9 3 21 9 26 13 6 3 25 7 43 8 31 2 37 -4 33 -35 -2 -17 16 -17 22 0 4 9 8
9 15 -2 8 -11 14 -10 35 4 26 17 75 18 69 1 -11 -28 61 -34 101 -7 33 21 85
18 66 -5 -7 -8 -7 -14 -1 -14 5 0 15 6 21 14 7 8 21 12 33 8 19 -5 18 -6 -8
-19 -29 -13 -29 -13 11 -7 21 3 52 17 68 30 28 24 67 25 75 3 2 -5 10 -9 18
-9 9 0 12 -5 9 -10 -4 -6 -15 -8 -26 -5 -13 4 -19 2 -19 -9 0 -19 9 -19 69 -5
26 6 55 21 71 39 29 31 60 40 60 17 0 -7 -5 -18 -12 -25 -9 -9 -3 -12 29 -12
56 0 82 11 125 54 36 36 61 45 73 26 4 -6 1 -17 -5 -25 -11 -13 -6 -15 29 -15
41 0 116 31 104 44 -3 3 1 6 10 6 10 0 17 5 17 10 0 6 7 10 15 10 8 0 15 -5
15 -10 0 -6 10 -4 23 5 13 8 27 12 30 8 13 -13 7 -23 -15 -24 -13 0 -32 -5
-43 -10 -15 -7 -7 -8 28 -5 32 2 56 11 72 26 15 14 25 18 30 11 3 -6 13 -11
21 -11 31 0 100 39 122 69 20 27 63 46 47 21 -15 -25 85 2 110 30 10 11 28 20
41 20 13 0 51 16 85 37 41 23 80 38 111 41 37 4 48 8 48 22 0 26 70 70 111 70
18 0 41 5 49 10 12 8 11 10 -6 10 -11 0 -23 3 -27 6 -8 8 79 54 103 54 29 0
69 21 64 34 -3 7 9 24 25 40 21 21 39 28 67 28 38 0 84 22 84 40 0 5 -10 6
-22 3 -19 -6 -18 -2 10 24 18 17 43 31 55 31 12 1 36 7 52 15 l30 15 -27 -4
c-33 -4 -33 -3 -12 30 17 25 17 25 38 5 12 -10 57 -37 101 -59 44 -22 121 -65
170 -96 49 -31 95 -56 103 -56 7 0 61 -24 120 -54 59 -30 125 -61 147 -69 22
-8 65 -25 95 -36 70 -28 280 -97 390 -128 85 -25 124 -34 340 -79 143 -30 514
-58 655 -49 55 3 163 10 240 15 77 5 187 16 245 25 58 9 132 20 165 25 33 5
83 14 110 20 28 6 57 12 65 14 8 1 31 10 50 18 19 8 60 21 90 28 87 20 111 27
185 55 39 14 129 46 202 70 73 24 161 58 197 75 36 16 67 30 70 30 3 0 27 13
53 28 52 31 131 74 258 142 90 48 177 105 250 166 28 22 68 53 90 68 62 41
256 227 353 338 75 86 105 121 175 208 13 16 142 191 167 226 113 161 228 360
365 634 82 162 172 427 191 560 21 138 29 309 17 321 -7 7 -12 -14 -15 -58 -5
-65 -25 -130 -121 -393 -49 -135 -79 -200 -129 -277 -24 -37 -59 -97 -77 -133
-19 -36 -44 -78 -56 -95 -12 -16 -48 -75 -80 -130 -68 -117 -133 -210 -169
-244 -14 -14 -26 -29 -26 -34 0 -15 -317 -371 -361 -404 -23 -18 -65 -55 -93
-81 -129 -124 -467 -313 -766 -429 -370 -145 -535 -183 -845 -198 -55 -3 -137
-7 -183 -10 -110 -7 -500 21 -637 45 -60 11 -146 26 -190 34 -115 20 -304 79
-457 142 -73 31 -158 65 -188 76 -124 48 -489 249 -552 305 -16 15 -15 17 14
45 39 36 30 47 -16 19 -33 -21 -37 -21 -65 -7 -16 9 -33 21 -36 26 -10 16 47
78 72 79 49 2 122 23 142 43 31 28 19 34 -17 8 -40 -30 -87 -25 -87 10 -1 14
2 27 5 30 14 13 29 51 25 62 -4 10 9 13 48 14 60 1 121 29 151 72 l19 27 -24
-22 c-32 -29 -91 -53 -129 -53 -24 0 -33 6 -40 26 -13 33 -13 34 3 34 8 0 24
11 36 24 13 13 39 26 63 30 54 9 107 37 144 78 50 55 61 75 19 37 -51 -47 -95
-69 -139 -69 -46 0 -56 18 -23 42 17 12 27 29 27 44 0 20 5 24 31 24 41 0 138
52 180 98 l34 36 -35 -29 c-48 -39 -128 -75 -168 -75 -26 0 -35 5 -42 26 -12
32 -13 67 -1 60 12 -8 69 22 79 40 5 8 36 21 70 29 72 17 104 35 149 85 49 53
39 62 -13 14 -73 -68 -184 -90 -241 -49 -17 13 -17 15 3 42 12 16 33 29 47 31
15 2 31 11 37 21 6 12 26 20 55 24 76 11 200 104 181 136 -4 6 -22 -7 -42 -28
-19 -22 -50 -46 -68 -55 -43 -20 -110 -21 -126 -1 -7 8 -19 15 -26 15 -16 0
-18 19 -4 54 5 14 17 26 26 26 10 0 25 6 33 14 9 7 41 21 71 31 40 13 70 32
108 70 49 49 64 75 43 75 -5 0 -20 -14 -32 -31 -13 -19 -48 -44 -86 -62 -72
-33 -85 -31 -147 27 -29 27 -30 28 -11 42 11 7 25 17 30 22 6 4 51 31 100 59
50 29 97 60 106 70 27 32 30 52 9 63 -27 14 -34 12 -20 -5 10 -12 7 -19 -14
-39 -41 -37 -128 -76 -173 -76 -70 0 -109 67 -72 126 21 34 46 52 136 99 49
25 103 75 103 95 0 11 -33 30 -50 30 -7 0 -5 -7 4 -16 9 -8 16 -19 16 -24 0
-29 -117 -82 -206 -95 -49 -6 -51 -6 -77 29 -34 43 -34 59 -1 125 18 35 43 64
79 91 63 47 107 97 103 119 -4 18 -47 42 -62 34 -5 -4 0 -11 12 -16 12 -6 22
-13 22 -17 0 -12 -81 -75 -138 -109 -77 -45 -95 -48 -121 -15 -18 22 -20 36
-16 81 6 65 12 74 97 148 83 72 105 137 45 134 -17 -1 -18 -2 -4 -6 38 -10 15
-48 -74 -117 -68 -53 -74 -56 -129 -56 -53 0 -61 3 -79 29 -41 57 -24 115 53
182 61 53 116 127 116 157 0 38 -12 52 -38 46 l-21 -6 20 -17 c20 -16 21 -19
6 -48 -22 -42 -105 -113 -132 -113 -12 0 -32 -11 -45 -25 -27 -29 -79 -41
-108 -26 -26 14 -46 64 -38 97 4 16 98 117 238 258 230 230 310 320 362 406
15 25 38 59 50 77 15 21 22 41 19 58 -4 20 -1 25 15 25 13 0 21 8 24 25 3 14
2 25 -2 25 -19 0 -17 42 2 58 30 25 45 60 62 142 10 49 12 76 5 79 -6 1 -3 8
5 15 12 9 16 46 20 175 6 173 0 218 -46 376 -57 192 -83 259 -127 324 -21 31
-49 85 -62 120 -14 37 -42 82 -66 110 -24 25 -46 55 -49 66 -14 41 -87 137
-158 208 l-73 72 21 40 c31 59 26 190 -10 277 -14 35 -26 74 -26 88 0 14 -15
52 -34 86 -42 76 -44 95 -6 90 48 -6 61 -17 95 -75 56 -94 62 -116 62 -241 0
-84 -5 -129 -18 -169 -21 -60 -15 -78 13 -41 81 105 68 306 -31 486 -44 80
-48 104 -20 104 42 0 118 -121 141 -226 14 -62 14 -202 0 -253 -15 -56 -5 -65
17 -15 27 61 24 249 -5 331 -12 34 -22 69 -22 78 0 8 -3 15 -7 15 -5 0 -9 25
-11 55 -3 53 -2 55 22 55 19 0 34 -12 56 -42 44 -60 61 -127 67 -265 5 -112 4
-124 -16 -156 -22 -37 -27 -57 -12 -57 17 0 49 64 59 118 11 62 -2 230 -22
282 -29 74 -67 202 -62 207 11 11 35 -7 30 -22 -9 -22 5 -85 18 -85 7 0 8 13
5 36 -7 43 10 53 47 29 73 -48 131 -311 95 -438 -5 -20 -20 -46 -31 -57 -22
-20 -22 -20 -1 -20 15 0 26 13 43 53 21 47 22 62 16 157 -10 168 -29 256 -66
310 -28 40 -32 66 -15 84 23 23 27 20 20 -12 -7 -35 9 -82 29 -82 9 0 13 10
12 32 -1 24 4 33 17 36 29 6 73 -52 103 -135 26 -71 29 -90 29 -210 0 -164 18
-163 23 1 4 121 -17 229 -59 309 -20 36 -15 49 10 25 10 -11 11 -5 5 30 -6 41
-6 42 23 42 33 0 49 -15 85 -80 41 -74 61 -183 56 -312 -3 -99 -2 -108 8 -73
7 22 13 83 13 136 1 81 -4 110 -30 190 -32 99 -67 179 -84 191 -11 8 11 17 37
15 12 0 18 -13 23 -49 8 -57 20 -64 20 -11 0 51 26 55 72 11 46 -44 58 -68 84
-173 26 -107 24 -246 -4 -289 -10 -14 -13 -26 -8 -26 12 0 38 56 50 110 23 99
8 194 -55 354 -6 15 -4 17 6 11 10 -6 12 -1 7 21 -12 67 37 77 98 20 44 -42
58 -98 57 -229 0 -82 -6 -123 -22 -173 -12 -36 -20 -68 -17 -71 3 -3 18 19 32
48 26 50 27 61 29 208 1 144 -1 159 -21 198 -13 23 -28 45 -34 48 -13 9 -1 87
15 97 21 14 23 8 22 -52 -2 -44 3 -68 17 -90 23 -36 32 -34 17 4 -14 38 -13
46 8 46 29 0 59 -27 81 -73 16 -34 21 -62 21 -129 0 -105 -23 -233 -47 -262
l-18 -21 24 20 c41 34 53 81 59 222 6 154 -6 202 -64 253 l-35 30 23 9 c13 5
29 16 36 24 22 26 50 9 57 -34 6 -34 9 -37 25 -27 14 9 23 7 46 -11 16 -12 32
-32 36 -44 24 -83 -28 -352 -78 -402 -23 -22 -1 -18 29 6 35 27 51 88 77 296
12 92 0 142 -41 172 -16 12 -29 26 -29 30 0 14 64 34 68 21 2 -5 10 -10 18
-10 15 0 17 -8 14 -56 -1 -18 3 -35 9 -39 6 -3 11 2 11 13 0 32 22 43 47 24
47 -38 54 -184 12 -302 -10 -30 -19 -63 -19 -75 0 -11 -9 -35 -20 -53 -13 -22
-16 -32 -8 -30 17 6 75 151 88 219 6 28 10 78 10 111 0 53 2 59 19 53 15 -4
18 -1 14 18 -3 16 4 34 19 52 34 39 75 30 82 -18 14 -84 14 -107 -4 -191 -20
-97 -41 -155 -71 -198 -11 -14 -19 -30 -19 -35 0 -19 71 94 89 141 34 92 51
252 33 305 -14 40 -5 68 24 74 20 3 24 0 24 -19 0 -12 -4 -33 -9 -47 -5 -13
-6 -30 -1 -37 6 -9 10 -7 15 9 3 11 15 26 26 32 16 8 25 5 49 -20 27 -26 30
-36 30 -88 0 -90 -49 -236 -112 -336 -39 -61 -30 -73 10 -14 48 69 108 207
122 281 14 77 9 164 -11 177 -18 11 -10 16 26 20 48 5 57 -6 40 -48 -17 -41
-18 -43 -7 -43 4 0 13 14 19 31 10 26 15 29 31 20 34 -18 62 -90 62 -159 0
-50 -7 -77 -38 -145 -23 -48 -56 -101 -80 -125 -22 -23 -37 -44 -32 -47 14 -8
40 8 76 47 38 40 55 71 93 165 26 64 29 80 24 144 -3 40 -12 84 -19 97 -18 34
-9 44 24 26 15 -7 32 -14 39 -14 9 0 8 -10 -3 -36 -8 -20 -10 -33 -5 -29 6 3
11 13 11 21 0 24 66 18 91 -8 32 -34 22 -139 -25 -254 -38 -94 -93 -183 -113
-184 -15 0 -18 -20 -4 -20 42 0 116 101 157 215 24 67 29 95 29 176 0 90 1 97
20 96 11 -1 30 2 43 7 18 6 22 4 22 -12 0 -10 -9 -27 -20 -37 -26 -23 -20 -29
14 -14 22 10 29 9 46 -6 16 -15 20 -31 20 -88 0 -105 -31 -191 -106 -290 -34
-45 -60 -84 -57 -87 8 -8 96 94 132 153 41 69 72 183 71 257 -1 30 -1 61 -1
67 1 9 14 11 49 7 65 -9 71 -18 36 -55 -23 -25 -24 -29 -6 -18 28 18 50 5 75
-42 38 -73 -20 -226 -131 -343 -24 -25 -37 -46 -30 -46 47 2 186 202 203 295
10 52 6 118 -7 126 -6 4 -8 14 -5 22 5 13 12 14 48 3 24 -7 44 -17 46 -22 2
-6 -10 -20 -27 -32 -16 -13 -30 -28 -30 -34 0 -6 8 -4 18 5 23 21 52 22 78 3
16 -12 19 -26 18 -88 -1 -123 -57 -214 -172 -280 -54 -32 -40 -45 20 -19 83
35 153 140 179 267 9 45 9 68 1 92 -11 31 -10 32 16 31 41 -1 75 -13 80 -27 2
-6 -3 -12 -10 -12 -8 0 -23 -6 -33 -14 -18 -13 -18 -14 7 -9 41 8 62 -41 54
-125 -12 -113 -66 -197 -159 -241 -63 -31 -56 -43 10 -16 79 33 129 94 158
195 10 34 85 101 110 98 46 -6 70 -122 40 -193 -21 -52 -110 -141 -161 -162
-53 -21 -55 -46 -6 -51 29 -3 40 3 80 46 60 63 94 108 110 145 17 41 42 152
42 189 0 30 1 30 19 14 10 -9 25 -14 35 -10 24 9 21 -33 -4 -48 -28 -18 -25
-29 7 -26 66 7 70 -127 7 -219 -48 -69 -117 -132 -154 -140 -39 -7 -49 -23
-15 -23 31 0 101 33 136 64 51 44 107 155 120 236 7 41 13 76 14 78 4 5 65
-30 65 -38 0 -4 -11 -15 -25 -24 -25 -17 -62 -76 -47 -76 5 0 14 12 20 26 9
18 19 24 34 22 33 -5 43 -49 28 -117 -16 -67 -34 -96 -135 -213 -22 -26 -60
-32 -95 -15 -32 17 -40 8 -14 -17 21 -21 73 -20 105 2 14 9 47 42 73 72 27 30
53 60 60 65 15 13 32 50 46 100 7 22 16 53 21 70 5 18 5 33 -1 39 -13 13 -13
46 0 46 6 0 10 -6 10 -14 0 -8 14 -23 30 -33 35 -20 36 -24 10 -40 -10 -7 -25
-23 -31 -35 -11 -21 -11 -22 5 -8 16 13 20 12 32 -5 24 -33 9 -195 -19 -195
-4 0 -36 -27 -72 -60 -66 -61 -95 -75 -144 -68 -36 5 -31 -19 5 -28 48 -12 95
6 150 58 30 28 54 56 54 61 0 6 9 20 19 31 29 31 74 153 67 181 -7 29 12 38
53 22 38 -14 38 -20 6 -41 -26 -17 -35 -48 -12 -44 22 5 7 -54 -36 -135 -46
-87 -121 -164 -169 -174 -15 -3 -28 -10 -28 -15 0 -16 58 -1 106 27 23 14 57
44 76 67 18 23 27 39 21 35 -22 -14 -14 4 24 54 39 52 50 62 33 30 -14 -27
-12 -40 3 -20 46 60 67 78 81 73 29 -11 18 -42 -72 -204 -27 -49 -90 -112
-133 -132 -18 -9 -26 -18 -20 -22 21 -13 90 34 152 106 35 40 84 94 108 120
41 45 73 60 86 39 9 -15 -31 -111 -58 -140 -46 -49 -128 -161 -138 -188 -11
-29 -5 -73 10 -73 5 0 7 9 4 20 -3 10 4 32 15 47 11 15 23 39 27 51 8 28 111
131 172 173 83 58 109 26 48 -60 -19 -26 -35 -53 -35 -58 0 -5 -15 -27 -33
-49 -76 -88 -97 -126 -97 -169 0 -22 7 -50 15 -61 13 -17 14 -15 9 27 -8 61
19 113 103 201 68 70 113 98 157 98 38 0 33 -29 -10 -71 -20 -18 -69 -77 -108
-129 -62 -83 -71 -100 -71 -137 0 -32 6 -48 24 -65 22 -21 23 -21 16 -3 -18
47 -16 75 9 125 27 53 91 121 137 145 31 17 109 31 109 20 0 -4 -40 -50 -89
-103 -48 -54 -96 -112 -105 -130 -20 -38 -19 -143 1 -149 9 -3 12 10 11 44 -3
61 21 112 83 173 39 39 139 100 163 100 3 0 6 -10 6 -23 0 -32 -43 -86 -113
-142 -63 -51 -97 -106 -97 -159 0 -40 8 -66 21 -66 5 0 4 12 -2 26 -7 20 -5
41 6 81 14 48 22 57 68 86 115 72 187 88 187 42 0 -33 -40 -76 -120 -128 -77
-50 -98 -93 -82 -162 l10 -40 1 45 c2 71 10 87 66 129 55 42 132 69 178 63 42
-5 30 -31 -32 -68 -29 -18 -78 -54 -107 -82 -55 -50 -66 -80 -48 -127 10 -26
24 3 17 36 -10 54 93 134 198 154 46 9 79 -8 79 -39 0 -19 -13 -29 -64 -55
-35 -17 -68 -31 -74 -31 -6 0 -26 -15 -45 -33 -29 -27 -34 -37 -29 -62 l6 -30
8 33 c14 51 85 92 160 92 52 0 62 -4 95 -33 20 -19 33 -38 30 -44 -4 -6 -52
-14 -107 -17 -91 -7 -102 -10 -120 -33 -25 -32 -17 -44 10 -16 11 12 29 24 40
28 42 13 235 -52 235 -80 0 -6 -27 -14 -60 -19 -94 -13 -95 -17 -12 -37 43
-10 87 -23 97 -29 20 -11 27 -51 14 -84 -8 -20 -38 -21 -54 -1 -11 13 -16 13
-48 -1 -56 -23 -117 -21 -153 5 -24 18 -33 20 -44 11 -14 -11 -31 -10 -82 6
-10 3 -1 -4 20 -15 31 -16 43 -18 63 -9 19 9 28 8 41 -4 31 -27 76 -31 137
-10 31 10 56 15 56 11 0 -5 11 -16 24 -24 23 -15 27 -15 51 1 15 10 31 28 36
42 8 21 11 22 26 11 10 -9 14 -9 10 -2 -9 14 22 33 52 33 28 0 39 39 15 57
-16 12 -58 18 -91 14 -7 -1 -13 3 -13 10 0 8 -3 9 -13 0 -16 -13 -28 -5 -20
15 4 11 18 12 58 8 48 -6 53 -4 60 15 7 22 6 22 63 -15 2 -1 -3 -12 -10 -23
-12 -20 -10 -24 12 -41 30 -23 80 -27 80 -6 0 8 5 18 10 21 6 4 9 1 8 -7 -2
-8 6 -13 20 -13 13 0 27 -7 32 -15 5 -8 10 -10 10 -4 0 6 -14 23 -30 37 -16
15 -30 32 -30 37 0 22 -30 8 -45 -20 -10 -19 -20 -27 -30 -24 -19 8 -19 8 11
71 28 57 26 77 -4 50 -10 -10 -26 -17 -36 -17 -14 0 -16 7 -10 53 4 28 15 64
25 78 24 35 14 43 -22 17 -23 -18 -31 -19 -44 -8 -8 7 -15 21 -15 32 0 11 -5
28 -11 39 -13 24 4 49 32 49 11 0 19 7 19 16 0 14 -7 15 -46 9 -50 -7 -74 5
-69 33 12 61 17 71 33 74 15 3 15 5 -4 15 -13 8 -33 9 -57 3 -43 -9 -47 -5
-40 33 4 19 10 26 19 23 8 -3 14 1 14 8 0 15 -41 36 -70 36 -24 0 -37 20 -19
31 11 7 10 11 -6 23 -11 9 -23 16 -26 16 -4 0 -19 17 -35 37 -20 27 -23 35
-10 30 29 -11 8 10 -39 40 -25 15 -46 35 -46 43 -1 8 -5 -5 -9 -30 -8 -53 -4
-70 19 -70 13 0 14 -2 2 -9 -9 -6 -19 -4 -28 5 -8 8 -20 14 -26 14 -7 0 -25
12 -41 26 -21 19 -26 28 -17 37 8 8 18 4 37 -14 l27 -24 -7 34 c-3 18 -6 37
-6 42 0 4 -9 10 -19 14 -13 4 -21 17 -24 38 -3 27 -4 26 -5 -10 -2 -48 -19
-56 -60 -27 -13 9 -32 14 -43 11 -27 -7 -32 7 -10 27 18 16 51 13 51 -5 0 -5
7 -9 16 -9 12 0 15 6 10 23 -3 12 -6 31 -6 42 0 16 -6 21 -27 20 -27 0 -28 1
-28 58 0 40 -4 61 -15 67 -24 15 -40 12 -40 -9 0 -24 -36 -51 -66 -51 -12 0
-29 11 -38 25 -9 14 -29 28 -44 31 -38 9 -42 13 -35 29 9 25 60 18 79 -11 9
-14 23 -23 30 -20 8 3 17 -2 22 -10 6 -10 8 6 7 45 -1 56 -15 91 -36 91 -5 0
-9 -6 -9 -14 0 -23 -39 -26 -54 -4 -11 15 -12 27 -4 49 8 25 7 34 -8 50 -10
12 -27 25 -38 31 -16 9 -18 7 -14 -9 7 -25 -8 -53 -27 -53 -8 0 -17 12 -21 28
-3 15 -7 33 -10 40 -2 7 2 22 9 33 10 17 8 22 -18 44 -38 31 -55 31 -55 1 0
-35 -16 -40 -40 -16 -14 14 -19 28 -15 38 16 38 15 48 -2 64 -10 8 -28 19 -40
22 -21 7 -23 4 -23 -28 0 -29 -4 -36 -19 -36 -27 0 -47 53 -32 86 10 23 8 29
-19 55 -35 36 -50 31 -50 -16 0 -44 -14 -51 -35 -19 -12 18 -16 39 -12 65 4
31 0 41 -22 62 -14 14 -38 29 -53 32 -26 7 -28 5 -28 -21 0 -16 -4 -34 -8 -41
-18 -28 -57 35 -48 78 3 17 1 29 -5 29 -6 0 -25 11 -42 24 -48 36 -62 36 -62
1 0 -20 -5 -31 -18 -33 -32 -6 -50 18 -44 61 5 36 3 40 -45 78 -28 22 -56 38
-62 36 -6 -2 -10 -20 -8 -41 2 -31 0 -36 -18 -36 -11 0 -28 9 -37 20 -18 20
-18 20 -30 -12 -6 -18 -12 -25 -12 -15 -1 9 -4 17 -9 17 -7 0 -27 51 -39 99
-3 13 -1 26 6 30 8 5 3 11 -13 19 -24 11 -24 10 -19 -22 7 -44 -17 -53 -55
-21 l-29 24 5 -24 c4 -21 1 -25 -21 -25 -14 0 -29 -4 -32 -10 -8 -12 -16 -12
-34 -1 -12 7 -10 14 8 36 13 18 21 42 21 68 0 36 2 38 17 26 12 -10 14 -10 9
-1 -4 6 -21 19 -37 28 l-30 15 3 -28 c3 -24 0 -28 -22 -27 -14 1 -34 4 -45 8
-17 6 -17 5 3 -10 27 -20 29 -51 2 -59 -28 -9 -88 39 -87 68 1 12 -2 34 -6 48
-5 21 -2 28 16 36 20 10 19 11 -22 22 -48 14 -73 3 -46 -19 28 -23 18 -40 -24
-40 -40 0 -62 14 -82 52 -9 17 -8 24 6 34 17 12 16 14 -8 23 -14 6 -43 11 -64
13 -35 3 -38 1 -37 -22 0 -14 3 -34 5 -45 3 -16 -2 -21 -23 -23 -36 -4 -82 42
-75 75 2 13 0 23 -6 23 -6 0 -7 -17 -3 -42 7 -43 36 -77 66 -78 9 0 6 -6 -9
-17 -19 -13 -28 -14 -42 -5 -10 7 -26 12 -34 12 -8 0 -15 8 -15 18 0 9 -7 26
-15 36 -20 26 -19 73 1 93 12 13 20 13 40 4 14 -6 23 -7 19 -2 -14 24 -121 38
-141 18 -3 -3 1 -20 10 -38 21 -43 20 -59 -4 -59 -56 0 -109 57 -95 101 4 13
1 19 -8 19 -10 0 -12 -8 -8 -32 8 -45 21 -63 59 -82 36 -19 38 -24 17 -52 -13
-17 -14 -17 -15 -1 0 9 -8 17 -18 17 -10 0 -33 14 -51 30 -26 24 -34 41 -37
75 -4 38 -2 45 13 46 10 0 3 5 -16 11 -26 7 -36 6 -42 -4 -7 -11 -9 -11 -9 0
0 7 -5 10 -11 7 -7 -5 -5 -11 4 -18 35 -29 26 -58 -20 -69 -25 -7 -63 16 -63
38 0 8 -4 14 -10 14 -5 0 -10 11 -10 24 0 22 -5 24 -57 28 -64 5 -82 -2 -58
-22 8 -7 15 -25 15 -39 0 -25 -3 -27 -32 -23 -18 2 -40 9 -48 16 -10 7 -9 3 3
-10 19 -23 22 -40 7 -49 -17 -11 -51 19 -75 67 -27 54 -17 72 18 34 l23 -25
-4 29 c-4 28 -7 30 -47 30 -73 0 -101 -24 -53 -45 33 -15 32 -32 -2 -43 -22
-8 -38 -8 -54 -1 -27 13 -48 52 -40 73 3 8 0 14 -8 13 -7 -1 -29 2 -49 7 -23
5 -45 4 -57 -3 -21 -11 -21 -11 4 -36 27 -27 31 -50 9 -58 -9 -4 -29 11 -53
38 -37 42 -43 45 -91 45 -62 0 -79 -21 -41 -52 25 -20 25 -25 -5 -28 -38 -4
-45 0 -45 30 l0 30 -65 0 c-36 0 -65 -2 -65 -4 0 -3 11 -17 25 -32 14 -15 24
-32 22 -38 -5 -16 -76 -19 -95 -4 -9 7 -14 9 -11 3 3 -5 11 -22 18 -37 14 -28
13 -35 -19 -83 -11 -16 -25 -40 -31 -52 -14 -26 -29 -30 -29 -8 0 8 -4 15 -10
15 -5 0 -10 7 -10 15 0 8 4 15 8 15 16 0 42 60 42 99 0 34 -5 43 -27 56 -28
16 -28 16 21 12 30 -3 43 -2 35 4 -8 5 -30 9 -49 9 -76 0 -105 -25 -55 -48 33
-15 32 -28 -6 -48 -22 -11 -28 -18 -20 -24 7 -4 11 -20 9 -36 -2 -21 -8 -29
-23 -29 -10 0 -33 -12 -49 -27 -42 -38 -64 -37 -37 1 12 16 21 45 21 65 0 28
4 36 18 36 16 1 16 1 0 11 -10 5 -18 19 -18 29 0 11 -5 20 -11 20 -6 0 -9 -7
-5 -15 3 -8 1 -15 -4 -15 -6 0 -10 5 -10 11 0 15 -72 7 -78 -8 -2 -7 4 -13 13
-13 10 0 14 5 10 13 -4 6 1 3 9 -7 23 -29 20 -42 -15 -57 -30 -12 -33 -11 -56
15 -13 16 -26 26 -29 24 -2 -3 2 -11 11 -18 24 -20 18 -31 -10 -18 -14 6 -25
15 -25 20 0 14 -28 9 -46 -9 -17 -17 -16 -18 12 -23 21 -4 29 -11 29 -25 0
-27 -48 -32 -83 -9 -23 15 -25 15 -14 1 8 -9 29 -22 48 -29 28 -10 34 -17 34
-41 0 -36 -57 -117 -82 -117 -28 0 -22 14 22 49 27 22 38 37 33 46 -12 21 -78
62 -112 70 -34 7 -42 25 -12 25 11 0 23 5 26 10 8 13 1 13 -40 -4 -41 -18 -45
-38 -10 -54 22 -10 24 -15 15 -32 -7 -14 -8 -26 0 -39 5 -11 10 -23 10 -28 0
-14 -54 -9 -73 7 -10 8 -21 15 -25 15 -4 0 -22 11 -40 25 -23 17 -28 26 -20
32 23 14 54 9 73 -12 10 -11 22 -20 26 -20 4 0 -3 11 -17 25 -29 29 -67 32
-119 11 -43 -18 -43 -24 -5 -37 33 -12 37 -23 15 -45 -13 -13 -18 -13 -44 0
-16 9 -31 21 -33 27 -5 16 -104 -17 -120 -40 -13 -18 -79 -51 -133 -68 -16 -4
-30 -13 -30 -18 0 -6 -4 -16 -8 -22 -5 -8 -3 -13 6 -13 8 0 22 -12 32 -26 13
-21 21 -24 46 -19 30 7 35 -1 20 -38 -6 -17 -8 -17 -32 2 -14 11 -46 28 -70
37 -56 22 -56 22 -33 38 17 13 15 13 -21 7 -41 -8 -91 -30 -67 -31 6 0 12 -4
12 -9 0 -4 -20 -11 -45 -15 -52 -7 -85 -22 -85 -38 0 -5 8 -8 18 -6 11 3 29 0
42 -7 23 -13 23 -13 2 -19 -12 -4 -36 -4 -54 -1 -21 4 -53 -1 -88 -14 -60 -21
-68 -38 -17 -33 31 3 31 2 14 -15 -13 -14 -21 -15 -35 -7 -9 6 -48 28 -87 49
-38 20 -86 49 -105 64 -54 40 -176 121 -184 121 -4 0 -40 23 -81 50 -41 28
-76 50 -79 50 -2 0 -91 42 -198 93 -106 52 -209 99 -228 106 -19 7 -51 22 -71
32 -58 30 -280 111 -319 115 -41 5 -245 41 -310 54 -138 29 -492 44 -660 30z
m487 -66 c-3 -3 -12 -4 -19 -1 -8 3 -5 6 6 6 11 1 17 -2 13 -5z m3819 -8 c3
-8 4 -23 2 -34 -2 -16 -7 -14 -25 14 -22 33 -22 34 -2 34 11 0 22 -6 25 -14z
m-159 -33 c16 -51 7 -55 -27 -13 -30 36 -30 50 -2 50 11 0 21 -14 29 -37z
m583 13 c5 -13 23 -40 40 -60 l32 -36 -27 -10 c-32 -12 -70 4 -61 26 3 8 1 14
-4 14 -5 0 -13 12 -16 28 -4 15 -14 35 -22 45 -14 16 -13 17 17 17 24 0 34 -6
41 -24z m-748 -24 c-2 -19 3 -33 17 -46 22 -20 28 -51 11 -61 -5 -3 -10 -2
-10 4 0 5 -10 11 -22 13 -20 3 -23 8 -20 41 3 26 -2 45 -14 58 -17 18 -16 19
13 19 27 0 29 -3 25 -28z m-4102 -32 c13 -8 12 -11 -5 -24 -25 -18 -52 -2 -34
20 13 16 19 17 39 4z m900 6 c0 -3 -4 -8 -10 -11 -5 -3 -10 -1 -10 4 0 6 5 11
10 11 6 0 10 -2 10 -4z m3570 -21 c7 -8 27 -15 44 -15 22 -1 27 -3 16 -9 -17
-10 -70 -8 -88 3 -17 10 -15 36 2 36 7 0 19 -7 26 -15z m-3401 -23 c-5 -2 -17
-1 -27 3 -15 6 -15 8 3 15 12 4 23 3 27 -4 4 -6 3 -13 -3 -14z m3216 16 c35
-16 31 -41 -10 -69 -19 -13 -36 -33 -37 -44 -3 -19 -4 -18 -17 4 -12 22 -11
26 8 42 13 11 21 29 21 48 0 35 0 35 35 19z m-4720 -18 c3 -5 1 -10 -4 -10 -6
0 -11 5 -11 10 0 6 2 10 4 10 3 0 8 -4 11 -10z m5931 -5 c-8 -22 20 -80 49
-99 30 -20 32 -32 5 -39 -22 -6 -90 50 -90 74 0 8 -7 25 -16 38 -14 19 -14 25
-3 32 24 15 62 11 55 -6z m-6105 -40 c0 -5 -9 -11 -21 -13 -20 -3 -27 8 -13
22 10 9 34 3 34 -9z m4769 5 c0 -5 -5 -10 -11 -10 -5 0 -7 5 -4 10 3 6 8 10
11 10 2 0 4 -4 4 -10z m-2900 -15 c0 -8 -6 -15 -14 -15 -17 0 -28 14 -19 24
12 12 33 6 33 -9z m140 0 c0 -8 -4 -15 -9 -15 -5 0 -14 7 -21 15 -10 13 -9 15
9 15 12 0 21 -6 21 -15z m2690 7 c0 -16 -30 -50 -50 -55 -25 -6 -26 7 -2 38
16 23 52 34 52 17z m705 -12 c-3 -5 -1 -10 4 -10 6 0 11 -4 11 -10 0 -15 -26
-12 -39 3 -12 15 -5 27 16 27 8 0 11 -4 8 -10z m-3670 -22 c6 -4 2 -8 -7 -8
-10 0 -18 7 -18 17 0 9 3 12 8 7 4 -5 12 -12 17 -16z m3275 12 c0 -5 -7 -10
-16 -10 -8 0 -12 5 -9 10 3 6 10 10 16 10 5 0 9 -4 9 -10z m-790 -15 c35 -18
38 -37 10 -65 -24 -24 -40 -26 -40 -5 0 8 8 15 18 15 10 0 13 3 6 8 -11 7 -34
45 -34 56 0 9 9 7 40 -9z m-4370 -16 c0 -5 -9 -9 -20 -9 -19 0 -26 11 -14 23
8 8 34 -3 34 -14z m6027 -49 c-6 -11 -20 -20 -29 -20 -10 0 -18 -5 -18 -11 0
-6 -12 -9 -27 -7 -20 2 -29 9 -31 26 -3 18 1 22 22 22 14 0 26 -6 26 -12 1 -9
5 -8 13 3 25 33 65 32 44 -1z m-3790 2 c6 -11 8 -24 3 -32 -7 -11 -13 -9 -29
11 -11 13 -20 27 -21 32 0 15 36 6 47 -11z m3193 10 c0 -4 -9 -20 -20 -37 -11
-16 -20 -41 -20 -55 0 -21 -4 -18 -20 18 -10 23 -26 45 -35 48 -34 13 -13 29
40 31 30 1 55 -1 55 -5z m-3043 -19 c3 -7 -3 -9 -17 -6 -29 8 -37 25 -9 21 12
-1 24 -8 26 -15z m3843 -23 c0 -4 -11 -5 -25 -2 -14 2 -25 8 -25 12 0 4 11 5
25 2 14 -2 25 -8 25 -12z m-1410 0 c0 -5 -4 -10 -10 -10 -5 0 -10 5 -10 10 0
6 5 10 10 10 6 0 10 -4 10 -10z m1328 -23 c4 -30 -11 -35 -35 -12 -12 13 -13
18 -2 31 17 21 33 12 37 -19z m-1418 17 c0 -3 -5 -15 -11 -26 -11 -21 -12 -21
-25 -3 -20 27 -17 35 11 35 14 0 25 -3 25 -6z m-2146 -67 c13 -20 5 -30 -18
-21 -9 3 -16 15 -16 26 0 22 18 20 34 -5z m1268 -7 c9 -21 20 -30 35 -30 18 0
23 -6 23 -24 0 -14 -4 -28 -10 -31 -15 -9 -12 -45 5 -51 8 -4 15 -10 15 -14 0
-12 -28 -20 -45 -14 -10 4 -15 20 -15 48 0 48 -22 75 -79 99 -35 15 -32 22 17
37 40 12 39 12 54 -20z m643 20 c-3 -5 -10 -10 -16 -10 -5 0 -9 5 -9 10 0 6 7
10 16 10 8 0 12 -4 9 -10z m1918 3 c-7 -2 -21 -2 -30 0 -10 3 -4 5 12 5 17 0
24 -2 18 -5z m-6643 -11 c0 -15 -48 -35 -67 -28 -17 7 -17 8 1 22 21 15 66 19
66 6z m6560 -12 c0 -5 -4 -10 -10 -10 -5 0 -10 5 -10 10 0 6 5 10 10 10 6 0
10 -4 10 -10z m-1926 -9 c4 -5 2 -20 -3 -33 -6 -12 -10 -18 -10 -12 -1 6 -15
17 -33 25 -27 11 -29 14 -12 20 27 11 52 11 58 0z m-4564 -11 c0 -5 -5 -10
-11 -10 -5 0 -7 5 -4 10 3 6 8 10 11 10 2 0 4 -4 4 -10z m4270 -2 c0 -4 -6 -8
-14 -8 -7 0 -25 -10 -40 -21 -36 -28 -48 -14 -14 16 26 22 68 30 68 13z m2922
-75 c-2 -10 -3 -37 -2 -60 1 -27 -4 -43 -11 -43 -6 0 -9 -7 -5 -15 7 -20 0
-19 -32 3 -40 28 -61 33 -84 21 -11 -6 -22 -8 -25 -6 -9 9 66 39 78 31 9 -5
10 -2 5 12 -10 24 -10 30 -1 75 4 23 3 39 -4 43 -6 4 -11 12 -11 18 0 5 21 -6
48 -26 31 -23 46 -41 44 -53z m-448 68 c8 -12 -20 -22 -41 -14 -15 6 -15 7 3
14 26 10 32 10 38 0z m-2827 -7 c-3 -3 -12 -4 -19 -1 -8 3 -5 6 6 6 11 1 17
-2 13 -5z m423 -14 c12 -8 11 -10 -7 -10 -13 0 -23 5 -23 10 0 13 11 13 30 0z
m-463 -16 c4 -11 8 -12 13 -4 8 13 60 3 60 -11 0 -5 -7 -26 -15 -46 l-16 -37
-24 36 c-28 41 -47 51 -81 42 -33 -8 -30 10 4 23 39 16 52 15 59 -3z m-4077
-29 c0 -8 -7 -15 -15 -15 -8 0 -15 7 -15 15 0 8 7 15 15 15 8 0 15 -7 15 -15z
m7149 -4 c9 -16 7 -18 -16 -18 -15 0 -29 -6 -31 -12 -6 -17 -49 -13 -56 4 -6
18 16 30 38 22 8 -3 17 1 20 9 8 20 33 17 45 -5z m-4029 -1 c0 -5 -8 -10 -17
-10 -15 0 -16 2 -3 10 19 12 20 12 20 0z m1310 1 c0 -13 -21 -19 -43 -13 -15
4 -16 7 -5 13 17 12 48 11 48 0z m3112 -68 c20 -23 30 -110 14 -116 -16 -6
-59 30 -53 45 2 7 0 23 -4 35 -17 46 13 70 43 36z m-3672 -10 c0 -3 -7 -3 -15
1 -19 7 -19 -3 0 -28 11 -14 22 -17 45 -13 l30 7 -4 -60 c-5 -55 -3 -62 22
-85 19 -18 23 -28 15 -36 -29 -29 -68 32 -57 91 4 20 -3 30 -35 53 -21 15 -49
27 -62 27 -22 0 -22 0 5 29 24 25 56 33 56 14z m-604 -30 c-3 -3 -13 0 -22 8
-15 12 -14 14 3 20 17 6 32 -15 19 -28z m1114 27 c11 0 12 -2 3 -8 -7 -4 -16
-19 -22 -32 l-10 -25 -12 32 c-7 18 -20 34 -29 36 -8 2 1 3 20 1 19 -2 42 -3
50 -4z m2840 -14 c0 -3 -4 -8 -10 -11 -5 -3 -10 -1 -10 4 0 6 5 11 10 11 6 0
10 -2 10 -4z m-7689 -26 c-27 -23 -61 -26 -61 -6 0 14 22 22 65 24 19 1 18 0
-4 -18z m174 7 c-8 -19 -45 -40 -45 -26 0 7 -8 4 -20 -6 -11 -10 -20 -16 -21
-14 -11 57 -12 56 41 58 37 1 48 -2 45 -12z m4523 -17 c-1 -31 -15 -39 -36
-18 -10 10 -8 16 10 30 13 10 24 18 25 18 1 0 1 -13 1 -30z m-88 -5 c-7 -9
-15 -13 -17 -11 -7 7 7 26 19 26 6 0 6 -6 -2 -15z m-4389 -18 c-13 -13 -26 -3
-16 12 3 6 11 8 17 5 6 -4 6 -10 -1 -17z m7439 13 c0 -6 11 -8 25 -4 14 3 32
3 41 0 14 -5 12 -10 -10 -31 -15 -14 -30 -25 -33 -25 -4 0 -17 -10 -30 -22
l-23 -21 0 40 c0 23 3 48 6 57 7 18 24 22 24 6z m525 -89 l-1 -56 -50 0 c-27
0 -55 -4 -61 -8 -7 -5 -13 -6 -13 -3 0 3 11 13 25 22 19 13 28 14 39 5 20 -17
27 0 27 64 0 49 2 53 18 44 13 -9 16 -24 16 -68z m-3964 53 c16 -14 23 -15 49
-4 17 7 33 10 36 7 3 -3 1 -29 -5 -57 -15 -68 -15 -67 17 -84 26 -13 31 -13
45 2 15 15 17 15 17 0 0 -18 -16 -33 -47 -42 -18 -6 -26 -1 -42 25 -11 17 -17
37 -15 44 3 6 -8 26 -25 43 -23 26 -37 32 -71 32 l-41 0 28 25 c34 29 32 29
54 9z m3719 12 c0 -3 -4 -8 -10 -11 -5 -3 -10 -1 -10 4 0 6 5 11 10 11 6 0 10
-2 10 -4z m-3428 -58 c-17 -17 -25 -3 -17 29 l7 28 11 -23 c7 -16 7 -26 -1
-34z m3473 42 c3 -5 1 -10 -4 -10 -6 0 -11 5 -11 10 0 6 2 10 4 10 3 0 8 -4
11 -10z m-4132 -27 c7 -37 3 -39 -22 -14 -26 26 -27 41 -2 41 12 0 20 -9 24
-27z m737 8 c0 -11 -4 -22 -9 -25 -11 -7 -20 14 -13 32 7 19 22 14 22 -7z
m3296 10 c11 9 14 8 14 -4 0 -8 -7 -18 -16 -21 -23 -9 -24 -8 -23 17 0 12 3
16 6 9 4 -10 8 -10 19 -1z m-8036 -38 c-1 -20 -29 -41 -62 -47 -31 -6 -38 -4
-38 9 0 8 15 21 33 29 36 16 67 20 67 9z m125 -7 c12 -12 9 -14 -20 -18 -29
-3 -35 -1 -35 14 0 22 35 24 55 4z m4059 -25 c3 -5 -1 -12 -10 -15 -22 -9 -24
-8 -24 9 0 16 25 21 34 6z m463 -16 c-9 -19 -13 -21 -15 -9 -3 13 12 33 25 34
0 0 -4 -11 -10 -25z m-355 -7 l34 9 -21 -42 c-17 -36 -22 -41 -35 -30 -8 8
-28 17 -43 20 -25 7 -26 9 -11 20 12 8 14 14 5 19 -6 4 -9 12 -5 17 4 6 13 4
24 -6 14 -13 25 -14 52 -7z m436 -15 c82 -77 150 -349 112 -449 l-11 -27 -24
23 c-22 21 -25 32 -25 95 0 90 -20 158 -77 262 -37 68 -42 86 -33 103 14 26
23 25 58 -7z m3732 12 c-8 -10 -10 -30 -6 -60 4 -25 6 -45 4 -45 -2 0 -18 4
-36 9 -39 12 -82 -1 -82 -24 0 -8 -4 -15 -10 -15 -5 0 -10 6 -10 13 0 6 -3 23
-7 36 -6 23 -5 23 58 20 70 -4 64 -10 68 64 1 9 8 17 17 17 13 0 14 -3 4 -15z
m-4480 -29 c0 -3 -4 -8 -10 -11 -5 -3 -10 -1 -10 4 0 6 5 11 10 11 6 0 10 -2
10 -4z m60 -64 c0 -13 -11 -10 -37 11 -7 5 -10 13 -7 18 7 12 44 -13 44 -29z
m4536 23 c4 -8 3 -23 -1 -32 -7 -17 -8 -16 -15 2 -5 11 -9 26 -9 33 -1 17 18
15 25 -3z m-3922 -39 c38 -45 69 -122 80 -197 4 -24 10 -57 13 -74 l5 -30 -31
29 c-17 17 -31 37 -31 45 0 9 -25 67 -56 129 -31 61 -53 119 -50 127 10 26 34
16 70 -29z m-4859 8 c-42 -33 -55 -36 -55 -15 0 19 16 28 55 30 l20 0 -20 -15z
m127 -9 c0 -14 -29 -31 -38 -22 -9 8 16 39 28 35 5 -2 10 -8 10 -13z m4253
-25 c9 -16 23 -30 33 -30 27 0 42 -20 42 -56 0 -18 6 -34 13 -37 8 -3 6 -7 -6
-12 -23 -10 -57 20 -57 51 0 36 -10 54 -41 70 -30 15 -40 44 -14 44 8 0 21
-13 30 -30z m175 15 c7 -8 21 -15 32 -15 10 0 17 -4 13 -10 -3 -5 -13 -6 -21
-3 -11 4 -15 0 -12 -13 4 -24 -31 -21 -49 4 -31 39 5 75 37 37z m4350 -45 c-1
-11 -41 -52 -46 -47 -3 3 -2 21 1 40 6 32 9 35 26 24 10 -6 19 -14 19 -17z
m-122 -26 c-13 -13 -19 -14 -37 -2 -18 11 -26 10 -52 -5 -17 -9 -35 -15 -39
-12 -13 8 0 35 16 35 8 0 14 4 14 9 0 5 18 7 40 4 30 -4 40 -2 40 8 0 10 5 9
17 -4 16 -16 16 -18 1 -33z m-4036 28 c18 -8 55 -59 76 -106 11 -25 3 -20 -50
29 -74 68 -87 85 -61 84 10 0 26 -3 35 -7z m-497 -54 c16 -28 16 -31 2 -19
-11 9 -30 12 -52 8 -28 -5 -37 -2 -45 14 -8 14 -7 19 3 19 7 0 18 -5 23 -10 8
-8 15 -6 24 5 18 21 23 19 45 -17z m-4247 10 c-5 -15 -86 -74 -92 -67 -2 2 -6
13 -10 24 -5 17 1 23 37 37 53 20 70 21 65 6z m115 -4 c-24 -18 -63 -18 -63 0
0 11 12 15 40 14 36 0 39 -2 23 -14z m-263 -39 c-7 -8 -17 -15 -22 -15 -5 0
-16 -7 -24 -15 -20 -20 -36 -19 -32 2 2 9 19 22 38 29 47 17 55 17 40 -1z
m4472 -15 c1 -14 5 -27 8 -30 16 -15 39 -60 31 -60 -23 0 -61 24 -61 39 0 9
-7 25 -15 35 -21 27 -19 39 5 31 13 -4 20 -2 20 6 0 20 8 6 12 -21z m323 0
c10 -11 14 -20 9 -20 -5 0 -15 9 -22 20 -7 11 -11 20 -9 20 2 0 12 -9 22 -20z
m4253 -7 c10 -14 9 -19 -5 -27 -12 -6 -21 -4 -33 11 -8 11 -29 25 -45 32 -28
10 -26 11 20 6 31 -3 55 -12 63 -22z m107 7 c4 -11 4 -34 0 -50 -5 -23 -1 -35
18 -54 27 -27 20 -36 -29 -36 -17 0 -24 5 -24 20 0 22 -15 31 -55 34 -30 1
-29 0 -9 21 15 15 18 15 41 0 32 -21 38 -14 36 41 -2 46 11 59 22 24z m-4960
-20 c-3 -5 -16 -10 -28 -10 -18 0 -19 2 -7 10 20 13 43 13 35 0z m75 -4 c0 -7
-9 -16 -20 -19 -22 -6 -23 -5 -14 17 8 20 34 21 34 2z m4653 -37 c-5 -5 -19
-11 -32 -14 -12 -2 -31 -14 -42 -27 l-19 -23 6 40 c9 53 30 68 67 48 18 -9 26
-18 20 -24z m-8693 12 c0 -6 -4 -13 -10 -16 -5 -3 -10 1 -10 9 0 9 5 16 10 16
6 0 10 -4 10 -9z m3977 -13 c-3 -8 -6 -5 -6 6 -1 11 2 17 5 13 3 -3 4 -12 1
-19z m-4087 -6 c0 -10 -41 -35 -47 -28 -11 11 7 36 27 36 11 0 20 -3 20 -8z
m4246 -100 c-3 -3 -12 1 -21 8 -18 15 -20 56 -2 74 10 11 13 6 20 -31 4 -25 6
-48 3 -51z m4890 33 c-22 -22 -29 -15 -20 20 6 24 8 25 22 12 13 -14 13 -17
-2 -32z m-5083 -2 c-16 -21 -37 -51 -48 -68 -10 -16 -24 -34 -32 -38 -7 -5
-32 -32 -55 -60 -34 -44 -46 -52 -74 -52 -45 -1 -43 8 6 30 37 16 109 91 188
195 13 16 28 30 34 30 5 0 -3 -17 -19 -37z m837 6 c0 -6 -4 -7 -10 -4 -5 3
-10 11 -10 16 0 6 5 7 10 4 6 -3 10 -11 10 -16z m4028 -1 c2 -10 -13 -24 -40
-38 -24 -12 -53 -31 -65 -43 -30 -27 -30 -9 0 23 12 14 21 32 19 41 -2 10 8
19 30 26 40 13 52 11 56 -9z m-9168 -6 c0 -16 -48 -54 -54 -43 -4 5 4 19 16
30 23 22 38 27 38 13z m4774 -28 c9 -22 -3 -32 -14 -14 -12 19 -12 30 -1 30 5
0 12 -7 15 -16z m-360 -28 c-7 -19 13 -56 31 -56 8 0 15 -4 15 -9 0 -14 -43 0
-57 18 -17 22 -16 61 2 61 8 0 12 -6 9 -14z m5080 -65 c-5 -36 -2 -50 10 -60
9 -7 16 -18 16 -24 0 -6 -3 -8 -6 -4 -3 3 -16 2 -29 -3 -16 -6 -30 -3 -51 11
-30 20 -84 26 -84 10 0 -5 6 -11 13 -14 6 -2 -6 -8 -28 -12 -22 -5 -50 -15
-62 -23 -14 -9 -23 -10 -23 -4 0 6 9 16 20 22 11 6 29 29 40 50 20 39 35 55
24 25 -8 -20 2 -19 35 5 23 18 32 19 55 10 16 -6 30 -9 32 -7 2 1 5 21 8 42 2
22 5 42 5 44 1 2 8 -2 16 -9 12 -10 14 -24 9 -59z m-267 45 c4 -8 17 -15 28
-18 15 -2 4 -12 -43 -36 l-62 -33 20 38 c11 21 20 43 20 50 0 17 27 16 37 -1z
m-4747 -16 c0 -5 -5 -10 -11 -10 -5 0 -7 5 -4 10 3 6 8 10 11 10 2 0 4 -4 4
-10z m-420 -31 c10 -18 9 -20 -7 -17 -10 2 -19 11 -21 21 -5 24 15 21 28 -4z
m293 7 c4 -9 -3 -16 -17 -18 -27 -5 -46 0 -46 14 0 6 7 8 15 5 8 -4 17 -2 20
3 9 14 22 12 28 -4z m-74 -10 c7 -8 14 -23 16 -34 2 -11 11 -32 21 -47 9 -14
14 -28 11 -31 -5 -5 -65 4 -68 9 0 1 -3 28 -5 60 -4 57 3 70 25 43z m1079 -28
c19 -19 14 -29 -8 -16 -20 13 -27 28 -12 28 4 0 13 -5 20 -12z m-5620 -93
c-25 -36 -34 -43 -36 -28 -2 10 -10 23 -19 30 -12 10 -11 12 7 18 12 4 24 5
27 2 2 -3 14 4 25 15 33 33 31 13 -4 -37z m379 28 c-15 -16 -17 -16 -17 -1 0
9 6 18 13 21 20 7 22 -2 4 -20z m3832 -5 c0 -13 -4 -32 -9 -43 -7 -18 -8 -18
-15 7 -8 31 -1 58 15 58 5 0 10 -10 9 -22z m274 -22 c24 -6 26 -9 16 -27 -14
-27 -5 -49 20 -49 30 0 35 -19 7 -26 -31 -7 -93 21 -101 47 -10 29 4 82 18 71
7 -5 24 -12 40 -16z m-4577 -62 c-3 -7 -12 -11 -20 -8 -9 3 -21 -5 -31 -20
-10 -14 -21 -26 -26 -26 -17 0 -9 33 17 67 14 18 21 33 17 34 -4 1 3 4 17 8
21 6 25 3 28 -17 2 -13 1 -30 -2 -38z m4238 30 c10 -25 -34 -74 -66 -74 -24 0
-28 4 -28 29 0 30 13 46 45 54 36 9 43 7 49 -9z m-3964 -4 c0 -5 -4 -10 -9
-10 -6 0 -13 5 -16 10 -3 6 1 10 9 10 9 0 16 -4 16 -10z m4143 -34 c-19 -27
-42 -40 -52 -30 -3 3 9 19 27 36 39 34 53 31 25 -6z m5403 -4 c-46 -4 -56 3
-31 22 16 12 23 11 44 -3 l25 -16 -38 -3z m-9666 -21 c0 -6 -4 -13 -10 -16 -5
-3 -10 1 -10 9 0 9 5 16 10 16 6 0 10 -4 10 -9z m4160 5 c0 -11 -19 -15 -25
-6 -3 5 1 10 9 10 9 0 16 -2 16 -4z m223 -28 c21 -8 27 -17 27 -39 0 -16 -4
-29 -8 -29 -11 0 -74 47 -84 62 -19 31 -4 33 65 6z m-4217 -25 c-8 -16 -22
-35 -30 -42 -28 -24 -19 27 10 56 31 31 41 25 20 -14z m9574 12 c0 -18 -5 -25
-19 -25 -11 0 -27 -3 -35 -6 -14 -6 -14 -2 1 25 22 38 53 42 53 6z m-9884 -47
c-40 -71 -66 -87 -66 -40 0 23 10 39 43 66 23 20 46 36 50 36 5 0 -8 -28 -27
-62z m4394 47 c0 -8 -7 -15 -16 -15 -14 0 -14 3 -4 15 7 8 14 15 16 15 2 0 4
-7 4 -15z m1270 -44 c0 -24 -1 -24 -17 -8 -15 15 -16 19 -4 26 9 6 10 11 2 15
-6 4 -11 13 -11 19 1 24 30 -27 30 -52z m4430 44 c11 -13 10 -14 -4 -9 -9 3
-16 10 -16 15 0 13 6 11 20 -6z m-10234 -32 c-10 -10 -19 5 -10 18 6 11 8 11
12 0 2 -7 1 -15 -2 -18z m4334 7 c0 -11 -6 -20 -14 -20 -18 0 -29 16 -21 30
11 18 35 11 35 -10z m269 -67 c6 -7 11 -19 11 -27 0 -8 5 -18 10 -21 6 -3 10
-11 10 -17 0 -18 -40 30 -66 79 -32 58 -31 90 1 38 13 -22 29 -45 34 -52z
m1061 62 c0 -14 -2 -25 -4 -25 -2 0 -6 11 -8 25 -3 14 -1 25 3 25 5 0 9 -11 9
-25z m-5330 -5 c0 -5 -5 -10 -11 -10 -5 0 -7 5 -4 10 3 6 8 10 11 10 2 0 4 -4
4 -10z m4119 -28 c-11 -7 -27 -12 -37 -9 -15 3 -15 5 3 12 11 5 24 15 29 23 7
12 10 12 17 1 5 -8 1 -18 -12 -27z m5798 16 c5 -13 8 -39 5 -60 -3 -30 0 -38
18 -48 18 -10 20 -14 9 -21 -21 -13 -29 -11 -29 7 0 10 -5 14 -15 10 -13 -5
-15 0 -10 28 5 25 3 36 -9 43 -14 8 -14 13 -4 36 16 33 22 34 35 5z m-4315
-50 c9 -19 1 -23 -19 -10 -7 5 -10 17 -6 32 4 16 8 20 11 10 3 -8 9 -23 14
-32z m-1667 2 c-2 -26 -34 -60 -51 -53 -11 4 -8 13 13 38 33 39 40 42 38 15z
m-4245 0 c0 -16 -51 -61 -61 -54 -16 9 -10 33 13 48 26 18 48 21 48 6z m4386
-4 c3 -8 -2 -26 -11 -40 -9 -14 -14 -30 -10 -36 3 -5 -3 -22 -14 -36 -12 -15
-21 -33 -21 -40 0 -19 -27 -18 -34 2 -4 10 5 26 23 43 21 19 31 41 36 74 7 46
20 60 31 33z m247 -1 c-3 -9 -8 -14 -10 -11 -3 3 -2 9 2 15 9 16 15 13 8 -4z
m5537 -5 c0 -14 -11 -22 -39 -30 -22 -6 -41 -14 -43 -18 -2 -4 -25 -6 -51 -4
-61 5 -58 27 4 28 63 1 69 2 69 18 0 13 16 22 48 25 6 0 12 -8 12 -19z m-5426
-10 c58 -22 145 -181 151 -277 2 -24 5 -47 8 -50 8 -7 37 52 37 76 0 42 -64
171 -114 228 -39 46 -5 35 41 -13 87 -90 123 -137 123 -161 0 -24 10 -29 26
-13 14 14 186 -161 270 -275 87 -117 129 -208 147 -315 34 -197 -8 -330 -156
-501 -152 -175 -263 -273 -371 -324 -83 -39 -103 -42 -152 -19 -65 31 -58 95
18 168 53 51 118 85 168 89 27 2 28 3 13 15 -9 6 -24 12 -33 12 -24 0 -168
-73 -225 -114 -27 -20 -53 -36 -57 -36 -16 0 -38 34 -38 59 0 52 123 137 214
148 38 5 44 8 31 16 -26 14 -107 1 -151 -24 -21 -12 -52 -29 -69 -36 -16 -8
-38 -18 -47 -24 -26 -13 -84 -11 -97 4 -15 19 16 46 105 90 57 29 84 36 138
38 36 1 66 6 66 10 0 8 -63 29 -86 29 -11 0 -108 -38 -179 -70 -42 -19 -105
-16 -112 7 -14 41 168 107 267 97 40 -4 51 -3 40 5 -22 16 -128 13 -190 -5
-30 -8 -79 -18 -107 -21 -51 -5 -53 -5 -53 19 0 21 9 27 80 51 91 31 147 34
195 11 19 -9 42 -14 51 -12 15 2 12 7 -12 23 -42 28 -176 33 -251 10 -67 -21
-128 -12 -128 18 0 30 116 87 177 87 47 0 130 -29 143 -50 9 -15 47 -12 43 3
-7 21 -96 59 -166 69 -77 11 -202 47 -202 58 0 22 44 43 104 47 57 5 73 2 120
-21 30 -15 66 -42 81 -61 25 -33 45 -45 45 -27 0 5 -16 27 -35 50 -42 48 -117
80 -212 89 -48 5 -67 11 -78 26 -8 11 -12 24 -9 28 9 16 68 39 99 39 59 0 205
-89 205 -125 0 -7 7 -19 16 -26 15 -12 16 -11 9 11 -11 38 -50 102 -77 127
-28 27 -67 43 -133 57 -66 15 -72 39 -13 53 62 13 118 -9 177 -72 36 -38 49
-61 54 -93 9 -55 32 -57 24 -2 -3 26 -1 45 7 53 16 14 5 71 -24 125 -29 57
-97 133 -151 169 -41 28 -69 59 -69 76 0 5 58 2 103 -6 15 -2 39 -15 53 -28
33 -31 80 -127 95 -194 7 -30 16 -55 20 -55 4 0 12 15 18 33 12 38 2 95 -25
135 -10 15 -26 43 -35 63 -24 52 -124 127 -155 115 -8 -3 -20 6 -29 24 -20 39
-19 45 11 46 22 2 23 1 8 -10 -11 -9 -13 -15 -6 -20 6 -3 13 -2 17 4 8 14 61
13 88 -2 87 -46 134 -113 153 -218 11 -64 11 -65 24 -37 29 60 -30 207 -103
257 -19 14 -52 48 -71 77 l-36 52 22 16 c13 8 31 15 41 15 23 0 80 -39 107
-72 38 -49 80 -164 81 -223 1 -46 5 -55 18 -53 10 2 19 20 25 51 9 44 6 54
-33 145 -52 121 -80 161 -131 192 -44 28 -58 54 -39 76 13 15 31 14 83 -6z
m-204 -42 c0 -5 -10 -8 -22 -6 -17 2 -24 11 -26 33 l-4 30 26 -24 c14 -14 26
-29 26 -33z m1240 43 c0 -12 -29 -35 -36 -28 -11 10 5 37 21 37 8 0 15 -4 15
-9z m-5375 -11 c3 -6 -1 -7 -9 -4 -18 7 -21 14 -7 14 6 0 13 -4 16 -10z m9889
-5 c-4 -8 -15 -15 -25 -15 -10 0 -19 7 -19 15 0 9 9 15 25 15 18 0 23 -4 19
-15z m-9934 -4 c0 -16 -48 -67 -55 -59 -18 17 14 57 53 67 1 1 2 -3 2 -8z
m-300 -28 c0 -10 -11 -35 -24 -56 -21 -35 -24 -36 -29 -16 -4 14 -11 20 -21
16 -23 -9 -20 -1 16 38 34 38 58 45 58 18z m4200 10 c0 -12 -33 -43 -46 -43
-26 0 -24 19 3 33 32 17 43 20 43 10z m6070 -49 c0 -13 -4 -25 -10 -29 -6 -4
-6 -15 0 -30 5 -14 6 -25 1 -25 -5 0 -14 20 -20 45 -6 25 -16 45 -21 45 -6 0
-3 12 7 26 16 25 17 25 30 8 7 -10 13 -28 13 -40z m-5895 -12 c-8 -8 -35 20
-35 37 1 12 5 11 21 -8 11 -13 17 -26 14 -29z m135 33 c11 -13 10 -14 -4 -9
-9 3 -16 10 -16 15 0 13 6 11 20 -6z m-4681 -24 c-15 -5 -22 6 -14 19 6 9 10
9 16 -1 5 -8 4 -15 -2 -18z m10470 -32 c-13 -24 -34 -25 -24 -1 5 9 8 25 9 35
0 17 1 17 13 1 8 -12 9 -22 2 -35z m-97 18 c11 -27 9 -32 -18 -39 -31 -8 -77
7 -72 25 6 15 44 35 66 33 9 0 20 -9 24 -19z m-6103 -59 c-9 -17 -49 -25 -61
-12 -4 3 4 20 15 39 l22 33 17 -21 c12 -15 14 -26 7 -39z m401 58 c0 -3 -4 -8
-10 -11 -5 -3 -10 -1 -10 4 0 6 5 11 10 11 6 0 10 -2 10 -4z m1160 -16 c0 -5
-5 -10 -11 -10 -5 0 -7 5 -4 10 3 6 8 10 11 10 2 0 4 -4 4 -10z m4420 -2 c0
-6 8 -21 18 -32 15 -18 15 -19 0 -8 -9 7 -33 14 -53 15 -36 2 -36 2 -14 20 24
20 49 22 49 5z m-5646 -27 c-2 -2 5 -15 17 -27 15 -16 17 -24 9 -29 -18 -11
-72 47 -65 68 6 13 10 14 25 4 11 -6 17 -13 14 -16z m-4582 -3 c-7 -7 -12 -23
-12 -36 0 -13 -5 -32 -11 -43 -10 -20 -11 -20 -24 -3 -11 16 -9 23 18 56 17
21 33 38 36 38 3 0 0 -5 -7 -12z m10512 -14 c5 -14 4 -15 -9 -4 -17 14 -19 20
-6 20 5 0 12 -7 15 -16z m-6209 -4 c-3 -5 -11 -10 -16 -10 -6 0 -7 5 -4 10 3
6 11 10 16 10 6 0 7 -4 4 -10z m-3995 -23 c0 -8 -8 -22 -19 -31 -17 -16 -19
-16 -25 1 -5 11 -1 22 10 30 23 17 34 16 34 0z m9970 -13 c0 -8 7 -17 15 -20
8 -4 15 -11 15 -17 0 -6 8 -19 18 -31 16 -19 15 -18 -19 2 -20 12 -46 22 -58
22 -25 0 -25 2 -6 41 16 29 35 31 35 3z m216 -4 c4 -16 10 -28 14 -25 8 5 23
-55 16 -63 -10 -9 -26 10 -26 31 0 16 -3 18 -12 9 -10 -10 -10 -17 0 -32 10
-17 10 -20 -2 -20 -10 0 -16 13 -18 43 -2 24 -7 40 -13 37 -5 -3 -9 -15 -7
-27 4 -29 -9 -35 -42 -17 -16 7 -39 14 -52 14 -29 0 -31 11 -6 33 11 10 26 14
40 10 24 -6 82 14 82 28 0 23 21 6 26 -21z m-6256 6 c0 -8 -3 -17 -8 -20 -10
-6 -43 19 -35 27 12 13 43 7 43 -7z m151 -82 c16 -19 3 -30 -16 -14 -13 10
-15 9 -15 -8 0 -13 -5 -19 -13 -17 -25 10 -72 -115 -48 -129 15 -10 14 -49 -1
-44 -6 2 -17 21 -24 41 -12 35 -11 40 21 97 20 35 31 67 28 79 -3 12 3 26 16
37 12 10 21 28 22 39 1 11 5 0 10 -24 4 -24 14 -50 20 -57z m1819 50 c0 -14
-4 -23 -10 -19 -5 3 -10 15 -10 26 0 10 5 19 10 19 6 0 10 -12 10 -26z m-1715
-24 c3 -5 1 -10 -4 -10 -6 0 -11 5 -11 10 0 6 2 10 4 10 3 0 8 -4 11 -10z
m-4605 -29 c-5 -11 -15 -23 -20 -26 -14 -9 -12 19 2 33 19 19 30 14 18 -7z
m150 9 c0 -6 -16 -27 -35 -47 -33 -34 -35 -35 -35 -12 0 13 12 33 28 46 30 25
42 28 42 13z m293 -7 c-6 -16 -5 -16 10 -4 22 18 22 2 1 -47 l-17 -37 -9 38
c-7 27 -7 41 2 52 16 20 21 19 13 -2z m4186 -20 c17 -15 15 -18 -21 -27 -23
-5 -27 -2 -37 26 -6 17 -11 32 -11 34 0 6 55 -20 69 -33z m1474 -30 c-7 -17
-18 -7 -28 25 -7 22 -6 23 13 6 11 -9 18 -23 15 -31z m125 -3 c-2 -6 -13 -3
-26 6 -18 13 -21 19 -11 30 10 12 14 11 26 -6 8 -11 13 -25 11 -30z m4452 -20
c0 -15 -6 -35 -14 -45 -13 -18 -15 -18 -40 -1 -15 9 -49 18 -77 19 -33 1 -49
6 -49 15 0 10 13 13 48 12 74 -4 81 -2 88 24 5 22 8 23 25 13 11 -7 19 -23 19
-37z m-10331 -47 c-7 -13 -18 -23 -26 -23 -18 0 -17 19 2 26 8 4 12 10 9 15
-3 5 0 9 6 9 7 0 9 8 5 20 -3 11 -3 25 2 32 14 22 16 -53 2 -79z m10126 50 c1
-17 9 -38 18 -48 32 -31 9 -28 -32 5 -39 32 -40 33 -23 56 22 30 37 25 37 -13z
m-6180 17 c3 -5 1 -10 -4 -10 -6 0 -11 5 -11 10 0 6 2 10 4 10 3 0 8 -4 11
-10z m303 -105 c-2 -1 -13 -7 -24 -13 -19 -10 -24 -8 -36 11 -15 22 -38 83
-38 98 0 4 23 -15 51 -43 27 -27 49 -51 47 -53z m6105 65 c-4 -20 0 -37 9 -48
8 -9 18 -25 22 -36 4 -11 12 -16 21 -12 18 6 18 5 5 -29 -9 -23 -13 -25 -25
-15 -12 10 -15 9 -15 -8 0 -12 -5 -24 -12 -28 -8 -5 -9 0 -5 16 7 28 -8 50
-34 50 -19 0 -19 1 -2 27 10 15 18 39 19 55 2 30 10 58 18 58 3 0 3 -14 -1
-30z m-10783 -17 c0 -22 -17 -50 -25 -42 -5 6 14 59 22 59 1 0 3 -8 3 -17z
m100 7 c0 -5 -4 -10 -10 -10 -5 0 -10 5 -10 10 0 6 5 10 10 10 6 0 10 -4 10
-10z m6364 -5 c-4 -8 -10 -12 -15 -9 -11 6 -2 24 11 24 5 0 7 -7 4 -15z m-178
-34 l25 -19 -26 -29 c-21 -24 -26 -26 -35 -13 -16 25 -11 80 8 80 2 0 15 -9
28 -19z m-6256 -53 c0 -5 -6 -8 -13 -8 -7 0 -18 -9 -25 -20 -13 -21 -32 -27
-32 -11 0 5 12 24 26 41 20 24 29 28 35 18 5 -7 9 -16 9 -20z m6420 17 c-7 -9
-15 -13 -17 -11 -7 7 7 26 19 26 6 0 6 -6 -2 -15z m-6289 -37 c-11 -18 -21
-29 -21 -25 0 4 -9 3 -20 -3 -15 -8 -20 -8 -20 3 0 23 65 73 79 61 2 -2 -6
-18 -18 -36z m4149 11 c0 -11 -7 -19 -17 -19 -41 1 -50 30 -13 42 21 7 30 0
30 -23z m6395 -1 c-11 -6 -24 -17 -28 -25 -12 -19 -27 -16 -27 5 0 26 9 32 44
32 28 -1 29 -2 11 -12z m-5895 -34 c39 -36 120 -147 120 -166 0 -5 -22 10 -49
34 -27 23 -71 51 -97 61 -100 37 -126 66 -88 94 32 23 71 15 114 -23z m1591
-25 c6 -3 6 -14 0 -30 l-10 -24 -7 23 c-3 12 -10 22 -15 22 -11 0 -12 44 -2
54 4 4 11 -3 16 -16 4 -12 12 -25 18 -29z m-1936 -68 c-5 -20 -8 -22 -16 -10
-5 7 -9 10 -10 4 -1 -5 -5 8 -8 30 -4 22 -2 46 3 53 13 19 39 -45 31 -77z
m-4425 29 c-9 -21 -19 -30 -36 -30 -32 0 -30 10 8 42 39 32 45 29 28 -12z
m4552 28 c-9 -9 -15 -9 -24 0 -9 9 -7 12 12 12 19 0 21 -3 12 -12z m-252 -29
c0 -5 -1 -9 -3 -9 -1 0 -17 -4 -34 -9 -29 -9 -31 -8 -21 9 11 18 58 25 58 9z
m295 -9 c3 -5 -1 -10 -9 -10 -9 0 -16 5 -16 10 0 6 4 10 9 10 6 0 13 -4 16
-10z m6032 -35 c21 -22 11 -28 -21 -14 -19 9 -23 15 -14 21 17 10 17 10 35 -7z
m-10276 -23 c-5 -10 -22 -19 -38 -20 -28 -2 -28 -2 7 17 19 10 36 19 38 20 1
0 -2 -7 -7 -17z m4159 8 c0 -5 -7 -10 -16 -10 -8 0 -12 5 -9 10 3 6 10 10 16
10 5 0 9 -4 9 -10z m95 -18 c-3 -3 -11 0 -18 7 -9 10 -8 11 6 5 10 -3 15 -9
12 -12z m-220 -52 c20 0 30 -41 13 -54 -8 -6 -18 -20 -22 -31 -8 -19 -8 -19
-17 3 -5 13 -19 32 -32 43 -16 14 -17 17 -4 13 13 -5 16 -2 11 10 -3 9 0 23 7
32 11 14 13 14 21 0 5 -9 15 -16 23 -16z m-4138 -27 c-16 -54 -23 -60 -37 -33
-10 19 -8 26 16 51 15 16 29 28 30 26 2 -2 -2 -21 -9 -44z m4048 17 c-3 -5
-12 -7 -20 -3 -21 7 -19 13 6 13 11 0 18 -4 14 -10z m-4365 -16 c0 -8 -5 -12
-10 -9 -6 4 -8 11 -5 16 9 14 15 11 15 -7z m6424 -23 c23 -26 6 -61 -29 -61
-22 0 -25 5 -25 33 0 51 23 63 54 28z m-2099 0 c3 -5 -8 -16 -25 -24 -26 -13
-30 -13 -30 -1 0 8 7 14 15 14 8 0 15 5 15 10 0 13 17 13 25 1z m-3865 -36 c0
-8 -4 -15 -10 -15 -5 0 -7 7 -4 15 4 8 8 15 10 15 2 0 4 -7 4 -15z m-220 -31
c0 -7 -6 -11 -14 -8 -10 4 -16 -5 -21 -27 -5 -23 -10 -28 -16 -18 -15 24 -10
67 8 78 20 11 43 -3 43 -25z m4370 7 c0 -12 -35 -20 -51 -11 -8 6 -3 10 17 13
16 2 30 5 32 6 1 0 2 -3 2 -8z m-450 -41 c0 -5 -5 -10 -11 -10 -5 0 -7 5 -4
10 3 6 8 10 11 10 2 0 4 -4 4 -10z m-30 -14 c0 -2 -7 -7 -16 -10 -8 -3 -12 -2
-9 4 6 10 25 14 25 6z m347 -68 c18 3 24 1 19 -7 -10 -16 -26 -14 -71 9 -22
11 -32 20 -22 20 10 0 20 11 24 28 7 26 7 25 15 -14 8 -37 11 -41 35 -36z
m1738 24 c-6 -15 -8 -15 -15 3 -4 12 -3 26 4 34 9 12 12 11 14 -3 2 -9 1 -25
-3 -34z m258 1 c-3 -7 -10 -13 -15 -13 -6 0 -7 7 -4 16 3 9 6 21 6 27 0 7 4 7
9 -2 5 -8 7 -20 4 -28z m-6213 -2 c0 -10 -7 -24 -15 -31 -13 -10 -15 -9 -15
12 0 14 3 28 7 31 12 13 23 7 23 -12z m5854 -17 c3 -8 2 -12 -4 -9 -6 3 -10
10 -10 16 0 14 7 11 14 -7z m-1506 -14 c-15 -23 -34 -26 -41 -6 -7 19 1 26 30
26 21 0 22 -2 11 -20z m-189 -12 c4 6 14 4 26 -5 16 -13 17 -15 3 -10 -10 4
-18 2 -18 -3 0 -5 -14 -7 -32 -3 -42 8 -44 9 -28 27 11 14 14 14 27 0 10 -9
18 -12 22 -6z m235 6 c4 -10 1 -14 -6 -12 -15 5 -23 28 -10 28 5 0 13 -7 16
-16z m-4635 -46 c-9 -16 -12 -17 -25 -4 -12 13 -12 19 -2 36 12 19 14 19 25 4
9 -12 9 -22 2 -36z m6581 25 c0 -17 -27 -53 -40 -53 -10 0 23 69 33 70 4 0 7
-8 7 -17z m-6425 -3 c3 -5 -1 -10 -10 -10 -9 0 -13 5 -10 10 3 6 8 10 10 10 2
0 7 -4 10 -10z m4145 0 c0 -5 -7 -10 -16 -10 -8 0 -12 5 -9 10 3 6 10 10 16
10 5 0 9 -4 9 -10z m1990 -55 c0 -8 -7 -15 -16 -15 -14 0 -14 3 -4 15 7 8 14
15 16 15 2 0 4 -7 4 -15z m-125 -26 c4 -11 4 -23 1 -27 -10 -9 -39 25 -32 37
11 17 24 13 31 -10z m-5983 -21 c-9 -9 -12 -7 -12 12 0 19 3 21 12 12 9 -9 9
-15 0 -24z m4279 -51 c-6 -15 -15 -27 -21 -27 -14 0 -12 11 4 33 8 10 12 28
10 40 -4 21 -4 21 6 2 8 -15 8 -29 1 -48z m1774 53 c-3 -5 -13 -10 -21 -10 -8
0 -14 5 -14 10 0 6 9 10 21 10 11 0 17 -4 14 -10z m337 -32 c-7 -7 -12 -8 -12
-2 0 14 12 26 19 19 2 -3 -1 -11 -7 -17z m-1962 -8 c0 -5 -4 -10 -10 -10 -5 0
-10 5 -10 10 0 6 5 10 10 10 6 0 10 -4 10 -10z m-4750 -56 c0 -8 -4 -12 -10
-9 -5 3 -10 10 -10 16 0 5 5 9 10 9 6 0 10 -7 10 -16z m346 -19 c-17 -26 -27
-30 -40 -18 -3 4 6 17 21 29 34 27 41 23 19 -11z m6154 15 c0 -12 -59 -50 -78
-50 -19 0 -1 29 29 45 30 16 49 18 49 5z m140 -4 c0 -3 -4 -8 -10 -11 -5 -3
-10 -1 -10 4 0 6 5 11 10 11 6 0 10 -2 10 -4z m-1790 -11 c0 -10 -50 -36 -59
-31 -19 12 1 36 30 36 16 0 29 -2 29 -5z m-4690 -12 c0 -14 -19 -38 -25 -32
-8 8 5 39 16 39 5 0 9 -3 9 -7z m-130 -33 c0 -11 -4 -20 -9 -20 -11 0 -22 26
-14 34 12 12 23 5 23 -14z m-90 -11 c0 -5 -7 -9 -15 -9 -15 0 -20 12 -9 23 8
8 24 -1 24 -14z m360 -4 c0 -9 -6 -12 -15 -9 -8 4 -12 10 -9 15 8 14 24 10 24
-6z m107 -21 c5 -17 -15 -37 -31 -31 -14 6 -14 10 -4 27 13 20 29 22 35 4z
m5725 -19 c-4 -26 -22 -35 -22 -12 0 10 18 37 26 37 1 0 -1 -11 -4 -25z
m-5906 -51 c-20 -29 -22 -30 -37 -3 -8 15 -8 19 0 15 6 -4 11 -1 11 6 0 8 5
19 12 26 21 21 32 -15 14 -44z m4656 50 c3 -3 4 -14 1 -25 -5 -19 -43 -27 -43
-9 0 6 5 10 11 10 6 0 9 7 5 15 -5 14 14 21 26 9z m-4973 -38 c-2 -2 -14 -7
-26 -10 -26 -8 -32 11 -11 32 9 10 15 9 27 -3 8 -8 13 -16 10 -19z m436 23 c7
-11 -32 -55 -41 -46 -7 6 17 57 27 57 4 0 11 -5 14 -11z m6315 7 c0 -3 -4 -8
-10 -11 -5 -3 -10 -1 -10 4 0 6 5 11 10 11 6 0 10 -2 10 -4z m-854 -51 c-4
-14 -11 -25 -16 -25 -13 0 -13 16 1 42 14 26 23 16 15 -17z m124 15 c0 -11 -6
-20 -14 -20 -9 0 -12 7 -9 20 3 11 9 20 14 20 5 0 9 -9 9 -20z m-5504 -46 c-5
-14 -9 -15 -19 -5 -9 9 -9 14 3 21 18 11 24 6 16 -16z m4228 20 c25 -10 19
-21 -13 -26 -26 -4 -29 -2 -20 14 11 20 11 20 33 12z m-4629 -14 c3 -6 -1 -13
-10 -16 -19 -8 -30 0 -20 15 8 14 22 14 30 1z m4973 -29 c-18 -22 -34 -38 -36
-36 -9 9 13 54 31 63 38 18 39 13 5 -27z m-4708 -1 c0 -16 -4 -30 -10 -30 -5
0 -10 14 -10 30 0 17 5 30 10 30 6 0 10 -13 10 -30z m6043 -18 c-15 -2 -36
-11 -46 -19 -9 -9 -20 -13 -23 -10 -4 3 -19 0 -35 -9 -38 -19 -37 -8 2 27 19
17 37 25 50 22 10 -3 19 -1 19 5 0 18 34 20 48 3 11 -14 9 -16 -15 -19z m237
28 c0 -6 9 -6 25 0 14 5 25 7 25 5 0 -7 -62 -45 -72 -45 -10 0 -10 34 -1 43
10 10 23 8 23 -3z m-6195 -38 c-8 -9 -25 20 -18 31 3 5 10 2 15 -7 6 -10 7
-20 3 -24z m4175 23 c-7 -8 -18 -15 -24 -15 -6 0 -2 7 8 15 25 19 32 19 16 0z
m1860 0 c-7 -9 -15 -13 -17 -11 -7 7 7 26 19 26 6 0 6 -6 -2 -15z m-1613 -17
c-3 -8 -6 -5 -6 6 -1 11 2 17 5 13 3 -3 4 -12 1 -19z m-4207 2 c0 -5 -2 -10
-4 -10 -3 0 -8 5 -11 10 -3 6 -1 10 4 10 6 0 11 -4 11 -10z m-601 -42 c-8 -15
-13 -17 -25 -7 -28 23 -5 59 23 37 9 -7 10 -15 2 -30z m248 16 c2 -6 -9 -11
-27 -11 -31 0 -40 11 -17 20 18 8 40 4 44 -9z m87 -27 c-3 -9 -12 -17 -19 -17
-17 0 -26 35 -12 49 15 15 40 -10 31 -32z m6326 28 c-7 -9 -15 -13 -19 -10 -3
3 1 10 9 15 21 14 24 12 10 -5z m-190 -38 c0 -16 -9 -28 -25 -35 -24 -11 -25
-11 -14 10 11 21 31 47 37 48 1 0 2 -11 2 -23z m140 8 c0 -8 5 -15 11 -15 8 0
8 -5 -1 -15 -7 -8 -19 -15 -27 -15 -11 0 -11 4 -3 20 6 11 8 25 5 30 -3 6 -1
10 4 10 6 0 11 -7 11 -15z m-6172 -20 c8 -17 8 -26 1 -31 -16 -9 -43 22 -36
40 9 23 22 20 35 -9z m4496 -13 c-11 -9 -27 -18 -37 -20 -13 -2 -9 5 15 27 18
16 35 25 37 20 2 -6 -5 -18 -15 -27z m-234 12 c0 -6 -44 -44 -51 -44 -5 0 -1
13 9 29 9 16 22 27 29 24 7 -3 13 -7 13 -9z m-4167 -14 c-3 -12 -8 -19 -11
-16 -5 6 5 36 12 36 2 0 2 -9 -1 -20z m4601 5 c-4 -9 -15 -20 -25 -26 -15 -8
-19 -6 -19 6 0 12 19 26 47 34 1 1 0 -6 -3 -14z m772 -1 c-3 -9 -6 -24 -6 -35
0 -14 -7 -19 -30 -19 l-30 0 22 35 c23 35 56 49 44 19z m-5636 -10 c0 -8 -4
-12 -10 -9 -5 3 -10 10 -10 16 0 5 5 9 10 9 6 0 10 -7 10 -16z m370 1 c0 -8
-4 -15 -10 -15 -5 0 -10 7 -10 15 0 8 5 15 10 15 6 0 10 -7 10 -15z m-287 -9
c3 -8 -3 -22 -13 -31 -17 -15 -19 -15 -25 6 -10 30 27 55 38 25z m5272 -56 c0
-25 4 -48 9 -51 23 -18 -49 -92 -135 -139 -59 -31 -106 -33 -129 -5 -37 45
160 248 235 242 17 -2 20 -9 20 -47z m740 29 c4 -6 -1 -17 -11 -24 -22 -17
-38 -19 -29 -5 3 6 1 10 -5 10 -6 0 -8 5 -4 11 4 8 9 7 15 -2 8 -13 13 -5 10
14 -2 11 17 8 24 -4z m-5885 -20 c-7 -11 -14 -18 -17 -15 -3 3 0 12 7 21 18
21 23 19 10 -6z m-197 -10 c3 -13 1 -19 -6 -16 -15 5 -22 37 -9 37 5 0 12 -9
15 -21z m-403 -5 c0 -8 -4 -12 -10 -9 -5 3 -10 10 -10 16 0 5 5 9 10 9 6 0 10
-7 10 -16z m524 0 c4 -9 4 -19 2 -21 -8 -8 -26 8 -26 23 0 19 16 18 24 -2z
m4358 -26 c-7 -7 -12 -8 -12 -2 0 14 12 26 19 19 2 -3 -1 -11 -7 -17z m1379
-8 c-25 -22 -57 -27 -45 -8 5 8 0 9 -17 5 -23 -6 -23 -5 -5 8 11 8 36 15 55
15 l36 -1 -24 -19z m-5785 -4 c3 -8 4 -22 2 -31 -2 -12 -8 -8 -21 14 -16 27
-16 31 -2 31 8 0 18 -6 21 -14z m6028 -13 c-3 -43 -4 -43 -11 -43 -20 1 -35
19 -27 31 5 8 9 17 10 22 1 4 2 9 3 12 0 3 7 5 14 5 8 0 12 -11 11 -27z m116
-23 c-22 -31 -49 -54 -35 -29 10 17 47 59 52 59 3 0 -5 -13 -17 -30z m-204
-15 c8 -34 -1 -55 -26 -55 -23 0 -27 22 -6 40 8 6 12 18 9 26 -3 8 0 14 6 14
6 0 13 -11 17 -25z m-5993 -10 c20 -27 16 -31 -14 -15 -10 6 -19 17 -19 25 0
22 13 18 33 -10z m125 -12 c-9 -11 -13 -10 -24 4 -10 15 -10 19 4 24 21 8 34
-11 20 -28z m96 -2 c-9 -10 -26 18 -18 30 5 9 9 8 14 -7 4 -10 6 -21 4 -23z
m5263 -81 c-4 -35 -3 -41 6 -30 7 8 26 15 43 15 28 0 31 -3 29 -27 -1 -16 -22
-51 -49 -82 -56 -65 -101 -84 -168 -70 -71 15 -88 83 -33 135 13 13 25 30 25
37 0 20 28 44 72 64 21 9 38 22 38 29 0 7 9 4 21 -7 17 -16 20 -27 16 -64z
m-5397 61 c0 -17 -18 -21 -24 -6 -3 9 0 15 9 15 8 0 15 -4 15 -9z m5789 -70
c-1 -24 -3 -28 -6 -13 -3 15 -11 22 -28 22 -25 0 -26 17 -1 48 15 21 36 -14
35 -57z m213 42 c-11 -16 -32 -39 -47 -53 -23 -20 -26 -21 -17 -5 13 24 68 85
77 85 4 0 -3 -12 -13 -27z m-5882 -15 l-1 -33 -13 25 c-14 25 -13 40 5 40 5 0
9 -15 9 -32z m-42 -20 c-2 -13 -7 -23 -13 -23 -5 0 -11 10 -13 23 -2 15 2 22
13 22 11 0 15 -7 13 -22z m-412 -15 c21 -28 17 -41 -11 -35 -32 6 -43 -19 -24
-56 18 -37 17 -47 -6 -47 -12 0 -19 -6 -17 -14 4 -20 -18 -81 -29 -81 -14 0
-6 33 11 47 13 11 13 12 -2 13 -10 0 -18 7 -18 15 0 8 -9 19 -20 25 -17 9 -21
7 -27 -17 -4 -16 -6 -36 -4 -47 1 -10 -1 -16 -6 -13 -5 3 -10 27 -12 54 -2 47
-1 48 66 110 37 34 72 63 77 63 5 0 15 -8 22 -17z m202 -33 c23 -17 42 -38 42
-48 0 -10 3 -22 7 -26 10 -10 12 -50 2 -56 -4 -3 -10 -22 -12 -43 -4 -44 -33
-79 -61 -75 -25 4 -66 72 -66 111 0 15 -6 27 -12 27 -7 0 -14 11 -14 25 -2 25
10 33 21 15 8 -12 32 -2 39 16 8 22 -13 57 -30 50 -8 -3 -14 -1 -14 5 0 8 32
26 51 28 3 1 25 -13 47 -29z m392 -7 c0 -22 -2 -25 -10 -13 -13 20 -13 40 0
40 6 0 10 -12 10 -27z m-234 -40 c-12 -12 -29 15 -21 34 7 17 8 16 18 -5 5
-12 7 -25 3 -29z m5588 -12 c10 -16 57 -19 63 -5 3 9 21 14 49 14 l44 0 -7
-32 c-3 -18 -11 -39 -16 -46 -8 -10 -7 -16 4 -24 11 -8 10 -9 -5 -4 -21 7 -44
-13 -62 -54 -17 -36 -148 -100 -206 -100 -44 0 -82 33 -72 63 14 45 44 94 66
110 13 9 41 32 63 51 39 35 68 45 79 27z m-5524 -36 c0 -14 -4 -25 -10 -25 -5
0 -10 11 -10 25 0 14 5 25 10 25 6 0 10 -11 10 -25z m4934 -20 c8 -33 1 -45
-30 -45 -27 0 -29 5 -11 43 15 34 33 35 41 2z m-200 -17 c18 -26 21 -84 6
-123 -18 -48 -118 -142 -168 -159 -66 -23 -91 -21 -102 9 -11 29 4 124 26 167
17 32 68 73 132 104 59 29 87 30 106 2z m-5282 -60 c-6 -6 -7 0 -4 19 5 21 7
23 10 9 2 -10 0 -22 -6 -28z m5828 -6 c0 -12 -70 -92 -78 -90 -4 1 -19 -2 -35
-6 -17 -5 -33 -4 -42 4 -24 20 -17 30 23 30 28 1 47 9 77 35 40 35 55 42 55
27z m-5324 -84 c8 -27 -13 -92 -40 -119 -12 -12 -32 -49 -46 -82 -30 -74 -50
-85 -45 -28 1 23 8 48 15 56 6 8 9 19 5 25 -7 11 32 49 50 50 6 0 18 22 28 49
21 59 21 61 1 61 -8 0 -13 4 -9 10 9 14 33 1 41 -22z m-76 12 c-8 -5 -19 -10
-25 -10 -5 0 -3 5 5 10 8 5 20 10 25 10 6 0 3 -5 -5 -10z m-320 -27 c-1 -27
-1 -27 -15 -9 -14 19 -12 36 6 36 5 0 9 -12 9 -27z m5411 1 c24 -22 24 -39 -3
-121 -19 -57 -33 -79 -89 -137 -64 -65 -98 -81 -91 -41 2 9 1 24 -2 32 -5 13
-9 13 -32 -2 -35 -23 -78 -16 -82 13 -2 13 1 28 6 35 5 7 17 35 26 63 15 47
59 109 113 160 18 17 33 20 79 18 36 -2 63 -9 75 -20z m-5191 -3 c0 -5 -6 -16
-13 -23 -8 -7 -16 -20 -20 -28 -3 -8 -6 -1 -6 17 -1 22 4 33 17 36 9 3 18 5
20 6 1 0 2 -3 2 -8z m-140 -53 c28 -32 37 -68 24 -102 -10 -27 -23 -7 -18 29
5 41 -15 48 -38 13 -8 -12 -19 -18 -26 -14 -16 10 -15 29 1 23 12 -5 14 2 20
58 1 14 3 25 5 25 1 0 16 -15 32 -32z m5828 -19 c-33 -60 -34 -60 -137 -68 -8
-1 -11 -7 -6 -18 4 -11 3 -14 -3 -8 -5 6 -12 24 -15 41 -6 29 -4 31 21 26 15
-3 30 -9 33 -15 10 -15 49 2 42 19 -3 9 7 19 31 29 20 8 36 20 36 25 0 6 5 10
11 10 5 0 0 -18 -13 -41z m-1081 -11 c-3 -8 -6 -5 -6 6 -1 11 2 17 5 13 3 -3
4 -12 1 -19z m-4371 -102 c-4 -20 -10 -36 -14 -35 -4 0 -20 16 -36 35 l-29 35
29 30 29 30 14 -29 c9 -19 11 -43 7 -66z m4374 64 c0 -5 -7 -10 -16 -10 -8 0
-12 5 -9 10 3 6 10 10 16 10 5 0 9 -4 9 -10z m774 -31 c14 -11 26 -30 26 -43
0 -51 -133 -207 -210 -246 -46 -24 -96 -26 -104 -5 -13 35 71 198 138 267 32
33 52 41 107 47 9 0 28 -8 43 -20z m-5563 -28 c1 -14 2 -13 6 2 6 23 23 22 23
-2 0 -29 -36 -40 -80 -25 -13 5 -12 7 2 15 9 5 15 16 12 24 -4 10 0 12 15 8
12 -3 22 -13 22 -22z m139 -14 c-9 -11 -40 2 -40 17 0 7 3 15 6 19 8 8 42 -27
34 -36z m-434 -4 c-1 -13 8 -19 29 -21 55 -6 52 -22 -4 -22 -44 0 -52 3 -47
16 3 9 6 22 6 30 0 8 4 14 9 14 5 0 8 -8 7 -17z m214 7 c0 -5 -4 -10 -10 -10
-5 0 -10 5 -10 10 0 6 5 10 10 10 6 0 10 -4 10 -10z m140 0 c0 -5 -4 -10 -10
-10 -5 0 -10 5 -10 10 0 6 5 10 10 10 6 0 10 -4 10 -10z m-290 -10 c0 -5 -5
-10 -11 -10 -5 0 -7 5 -4 10 3 6 8 10 11 10 2 0 4 -4 4 -10z m603 -24 c15 -23
15 -25 -8 -40 -33 -22 -59 -21 -50 2 4 9 10 27 12 40 7 29 27 28 46 -2z m4448
4 c-13 -11 -35 -20 -50 -20 -25 1 -25 1 9 20 47 26 73 26 41 0z m139 -13 c0
-19 -27 -53 -36 -45 -9 10 12 58 26 58 5 0 10 -6 10 -13z m840 -111 c0 -35 -8
-50 -53 -101 -93 -107 -156 -164 -175 -157 -7 2 -10 -2 -6 -12 7 -19 7 -19 47
-2 18 8 56 39 85 69 63 64 121 97 179 99 50 2 68 -11 77 -53 10 -53 -56 -132
-167 -198 -27 -17 -47 -22 -68 -17 -16 3 -29 1 -29 -4 0 -17 39 -50 58 -50 16
0 110 53 122 69 10 14 86 69 120 88 41 23 130 40 130 24 0 -15 -16 -22 -60
-24 -22 -1 -40 -5 -40 -9 0 -4 6 -8 14 -8 8 0 17 -7 20 -16 3 -8 10 -12 16 -9
5 3 10 0 10 -8 0 -7 -21 -35 -47 -62 -57 -58 -156 -107 -219 -109 -28 -1 -44
-6 -44 -13 0 -21 47 -15 157 22 120 40 167 44 183 16 16 -30 12 -45 -17 -78
-23 -25 -45 -34 -127 -53 -78 -19 -104 -21 -127 -13 -23 9 -29 9 -29 -3 0 -17
77 -19 199 -4 71 9 87 9 107 -5 26 -17 33 -69 14 -105 -15 -29 -99 -43 -212
-37 -54 3 -98 3 -98 1 0 -23 156 -38 247 -24 65 11 67 10 90 -14 13 -14 23
-30 23 -36 0 -5 -19 -23 -42 -40 -33 -24 -51 -30 -92 -30 -58 0 -135 19 -183
44 -18 9 -33 12 -33 7 0 -13 95 -56 157 -71 29 -6 74 -10 100 -7 27 2 58 1 71
-4 35 -13 25 -50 -19 -73 -38 -20 -48 -19 -229 30 -17 4 -22 3 -15 -3 15 -16
151 -64 195 -70 51 -7 72 -30 64 -70 -7 -34 -24 -43 -85 -43 -86 0 -203 74
-250 159 -11 20 -17 27 -14 16 10 -33 89 -145 103 -145 6 0 12 -4 12 -8 0 -14
89 -54 133 -60 23 -3 45 -10 49 -16 25 -38 -14 -93 -74 -102 -38 -7 -88 11
-159 57 -57 36 -95 92 -111 160 -10 41 -13 47 -20 30 -14 -38 63 -177 112
-202 14 -7 40 -24 58 -37 48 -35 148 -50 189 -30 31 15 31 15 20 -3 -6 -10
-20 -19 -29 -19 -10 0 -18 -3 -18 -7 0 -5 -9 -19 -19 -33 -16 -20 -21 -22 -35
-11 -14 12 -16 10 -16 -18 0 -24 -6 -34 -30 -46 -27 -14 -33 -14 -67 0 -87 36
-183 151 -183 220 0 21 -3 26 -11 18 -22 -22 19 -126 73 -188 53 -59 100 -85
154 -85 54 0 73 -60 34 -110 -23 -30 -35 -22 -19 13 6 14 9 33 5 43 -8 20 -15
15 -21 -16 -12 -62 -102 -61 -196 3 -40 27 -76 87 -90 150 -7 30 -16 54 -20
51 -10 -6 8 -90 30 -139 30 -69 124 -155 167 -155 27 0 32 -15 9 -24 -10 -4
-13 -14 -9 -36 9 -40 -4 -38 -63 10 -26 22 -81 65 -122 96 -40 31 -78 69 -85
84 -6 15 -16 25 -21 23 -6 -2 -58 45 -116 104 -96 100 -109 118 -176 248 -81
158 -105 238 -104 341 2 158 29 267 103 405 43 81 64 108 176 232 66 73 250
229 305 259 30 17 32 17 54 -4 17 -16 23 -33 23 -62z m178 49 c-1 -19 -5 -35
-10 -35 -5 0 -16 -7 -25 -15 -19 -19 -36 -10 -24 13 5 9 12 26 16 37 5 15 8
16 14 6 6 -9 10 -7 14 8 8 32 17 25 15 -14z m-5558 -5 c0 -5 -5 -10 -11 -10
-5 0 -7 5 -4 10 3 6 8 10 11 10 2 0 4 -4 4 -10z m-178 -55 c-7 -38 -23 -41
-18 -3 3 18 5 34 5 36 1 2 5 1 10 -2 4 -3 6 -17 3 -31z m-342 -4 c0 -26 -16
-35 -24 -15 -10 25 -7 34 9 34 8 0 15 -9 15 -19z m4874 13 c9 -3 16 -13 16
-22 0 -20 -29 -52 -48 -52 -9 0 -12 3 -9 7 4 3 2 12 -4 19 -7 9 -5 18 8 33 9
12 18 21 19 21 1 0 9 -3 18 -6z m-4657 -21 c3 -7 -4 -11 -16 -10 -12 1 -21 7
-21 15 0 16 32 12 37 -5z m5723 -23 c0 -5 -5 -10 -11 -10 -5 0 -7 5 -4 10 3 6
8 10 11 10 2 0 4 -4 4 -10z m-5785 -31 c4 -11 4 -23 1 -27 -10 -9 -39 25 -32
37 11 17 24 13 31 -10z m4840 2 c-3 -11 -1 -22 5 -26 19 -12 11 -33 -10 -28
-29 8 -27 73 2 73 5 0 7 -9 3 -19z m1282 -17 c-16 -14 -31 -23 -34 -20 -7 6
37 45 52 46 5 0 -3 -12 -18 -26z m-1577 -19 c0 -8 -4 -15 -10 -15 -5 0 -10 7
-10 15 0 8 5 15 10 15 6 0 10 -7 10 -15z m1515 -45 c3 -6 -2 -13 -12 -16 -22
-7 -33 -13 -72 -42 -30 -23 -31 -23 -31 -3 0 25 37 61 56 54 8 -3 14 0 14 6 0
14 37 15 45 1z m-5985 -16 c0 -24 -19 -54 -35 -54 -19 0 -15 41 5 57 21 17 30
16 30 -3z m4670 -11 c-1 -22 -18 -44 -46 -60 -19 -10 -21 -9 -21 15 0 26 31
61 55 62 6 0 12 -8 12 -17z m-4820 -14 c0 -11 -4 -18 -10 -14 -5 3 -7 12 -3
20 7 21 13 19 13 -6z m4953 4 c-7 -2 -10 -10 -8 -16 3 -7 -4 -23 -15 -37 l-20
-25 0 32 c0 22 7 37 22 47 12 9 24 13 27 9 3 -3 1 -8 -6 -10z m-285 -43 c-13
-20 -37 -34 -46 -26 -10 11 9 38 23 32 8 -3 17 -1 20 4 4 6 8 10 11 10 2 0 -1
-9 -8 -20z m-268 -15 c0 -8 -4 -15 -10 -15 -5 0 -10 7 -10 15 0 8 5 15 10 15
6 0 10 -7 10 -15z m1970 9 c0 -15 -35 -31 -54 -26 -19 5 -18 7 9 18 34 15 45
17 45 8z m-1491 -35 c-16 -10 -23 -4 -14 10 3 6 11 8 17 5 6 -4 5 -9 -3 -15z
m-4619 -5 c0 -8 -4 -12 -10 -9 -5 3 -10 10 -10 16 0 5 5 9 10 9 6 0 10 -7 10
-16z m-70 -40 c0 -8 -4 -14 -10 -14 -5 0 -10 9 -10 21 0 11 5 17 10 14 6 -3
10 -13 10 -21z m6091 -26 c8 -16 9 -23 1 -26 -6 -2 -8 -10 -5 -19 5 -13 3 -13
-14 -4 -21 11 -33 32 -33 57 0 22 38 16 51 -8z m-1611 -3 c0 -2 -13 -17 -29
-34 -62 -63 -106 -61 -49 3 19 22 41 36 55 36 13 0 23 -2 23 -5z m-4941 -74
c1 -35 -5 -22 -12 24 -5 28 -4 34 3 20 5 -11 9 -31 9 -44z m6411 39 c0 -22 10
-26 27 -9 7 7 19 9 28 5 33 -12 -3 -32 -60 -35 -56 -2 -56 -2 -44 21 21 40 49
50 49 18z m-1610 -9 c0 -4 -8 -19 -17 -32 -10 -13 -23 -33 -29 -44 -18 -32
-34 -30 -34 5 0 20 9 40 25 55 24 24 55 33 55 16z m1790 -34 c0 -20 -1 -20
-16 -5 -9 9 -13 21 -9 27 10 16 25 3 25 -22z m-1960 13 c0 -5 -5 -10 -11 -10
-5 0 -7 5 -4 10 3 6 8 10 11 10 2 0 4 -4 4 -10z m430 -70 c0 -5 -4 -10 -10
-10 -5 0 -10 5 -10 10 0 6 5 10 10 10 6 0 10 -4 10 -10z m1579 -31 c7 -23 11
-42 9 -44 -2 -1 -21 -5 -43 -9 l-40 -6 29 24 c24 20 26 27 17 44 -14 27 -14
32 2 32 8 0 19 -18 26 -41z m-1714 4 c-4 -16 -8 -36 -9 -46 -1 -19 -9 -22 -30
-10 -23 14 -24 37 -3 61 30 32 51 29 42 -5z m1535 -37 c0 -30 34 -40 66 -19
21 13 24 13 24 0 0 -21 -25 -38 -44 -31 -11 4 -16 1 -16 -10 0 -23 -27 -20
-35 4 -3 11 -15 20 -26 20 -23 0 -25 17 -2 42 22 25 33 23 33 -6z m-1794 -23
c-3 -21 -5 -42 -5 -48 -1 -5 -6 -3 -11 5 -11 17 -13 63 -3 73 16 16 23 4 19
-30z m148 2 c3 -9 -2 -31 -11 -51 -13 -25 -23 -34 -38 -32 -33 5 -32 48 2 75
33 27 39 28 47 8z m1870 -101 c4 -9 5 -18 4 -19 -8 -6 -78 9 -78 17 0 5 9 7
19 3 11 -3 22 -1 26 5 9 15 22 12 29 -6z m-2014 -54 c4 -27 0 -41 -9 -35 -5 3
-9 19 -9 36 1 29 14 29 18 -1z m1878 -2 c-5 -13 -9 -14 -48 -17 -11 0 -20 -8
-20 -16 0 -9 9 -25 20 -37 11 -12 20 -29 19 -37 0 -14 -1 -14 -6 -1 -4 8 -16
22 -28 32 -44 34 -33 88 15 75 11 -3 23 -1 26 4 8 14 26 11 22 -3z m-1724 -55
c5 -17 2 -31 -8 -41 -13 -13 -18 -13 -41 2 l-26 17 23 24 c30 32 44 31 52 -2z
m1845 -30 c1 -21 -17 -15 -24 7 -9 27 6 50 16 24 4 -10 8 -25 8 -31z m-1649
-14 c0 -18 -4 -28 -10 -24 -5 3 -10 20 -10 36 0 18 4 28 10 24 6 -3 10 -20 10
-36z m1689 -90 c-7 -4 -17 -5 -22 -2 -5 3 -2 10 7 15 9 5 17 21 18 36 1 22 2
21 5 -7 3 -21 0 -37 -8 -42z m66 32 c16 -19 16 -20 -4 -18 -13 1 -21 8 -21 19
0 23 3 23 25 -1z m-2041 -16 c8 -22 -17 -75 -36 -75 -20 0 -23 5 -33 48 -6 28
-3 33 17 41 27 10 44 5 52 -14z m1826 0 c0 -8 5 -15 10 -15 6 0 10 5 10 11 0
5 5 7 11 4 12 -8 -14 -29 -55 -45 -22 -8 -28 -6 -42 15 -20 31 -14 40 30 43
27 2 36 -1 36 -13z m-1622 -38 c2 -9 -2 -17 -9 -17 -7 0 -9 3 -6 7 4 3 1 13
-6 21 -10 13 -9 14 3 10 8 -2 16 -12 18 -21z m-41 -9 c-3 -8 -6 -5 -6 6 -1 11
2 17 5 13 3 -3 4 -12 1 -19z m-207 -48 c0 -5 -2 -10 -4 -10 -3 0 -8 5 -11 10
-3 6 -1 10 4 10 6 0 11 -4 11 -10z m2021 -79 c-12 -57 -27 -71 -45 -45 -13 17
-12 20 5 26 15 6 19 17 19 50 0 38 2 41 15 27 13 -13 14 -24 6 -58z m-214 35
c-3 -7 0 -19 6 -25 6 -6 7 -11 1 -11 -17 0 -33 22 -27 36 3 8 10 14 15 14 6 0
8 -6 5 -14z m-1109 -163 c10 -19 5 -43 -8 -43 -4 0 -10 14 -12 30 -5 33 6 40
20 13z m-437 -35 c16 -6 34 -66 24 -76 -8 -8 -75 26 -75 37 0 22 22 65 28 55
4 -6 14 -13 23 -16z m1529 -21 c0 -23 -17 -38 -33 -31 -21 8 -21 18 -1 38 16
17 34 13 34 -7z m71 -14 c13 -15 12 -15 -8 -4 -24 12 -29 21 -14 21 5 0 15 -7
22 -17z m105 1 c-3 -9 -6 -20 -6 -25 0 -5 -4 -9 -9 -9 -4 0 -6 11 -3 25 2 14
9 25 14 25 6 0 7 -7 4 -16z m-6346 -24 c0 -5 -2 -10 -4 -10 -3 0 -8 5 -11 10
-3 6 -1 10 4 10 6 0 11 -4 11 -10z m4810 -38 c0 -9 9 -28 20 -42 25 -32 25
-50 0 -50 -13 0 -24 10 -30 26 -13 34 -13 97 0 89 6 -3 10 -14 10 -23z m1500
4 c0 -8 -4 -18 -10 -21 -5 -3 -10 3 -10 14 0 12 5 21 10 21 6 0 10 -6 10 -14z
m-1717 -73 c3 -5 -3 -16 -13 -26 -16 -16 -18 -16 -24 -2 -3 9 -4 21 0 26 6 11
31 12 37 2z m1541 -12 c11 -17 -20 -30 -62 -27 -34 3 -42 0 -38 -11 7 -16 -10
-53 -23 -53 -14 0 14 69 35 85 21 16 80 20 88 6z m141 0 c3 -5 1 -12 -5 -16
-5 -3 -10 1 -10 9 0 18 6 21 15 7z m-1472 -71 c31 -33 28 -63 -3 -35 -11 10
-24 14 -32 9 -7 -4 -10 -4 -6 0 4 5 3 19 -2 32 -13 34 8 31 43 -6z m637 -40
c0 -11 -4 -20 -9 -20 -5 0 -7 9 -4 20 3 11 7 20 9 20 2 0 4 -9 4 -20z m610
-31 c0 -24 -29 -37 -41 -18 -5 8 -2 20 8 31 18 21 33 15 33 -13z m-1440 -4 c7
-9 8 -15 2 -15 -5 0 -12 7 -16 15 -3 8 -4 15 -2 15 2 0 9 -7 16 -15z m1629
-35 c-1 -9 -2 -10 -5 -3 -3 7 -12 9 -20 6 -17 -6 -18 1 -2 27 12 18 13 19 20
2 3 -9 7 -24 7 -32z m-130 30 c6 8 13 11 17 8 9 -10 -24 -41 -36 -33 -5 3 -10
14 -10 23 0 15 2 15 10 2 9 -13 11 -13 19 0z m61 -25 c0 -8 -8 -19 -18 -24
-14 -8 -18 -6 -19 10 -1 11 2 17 7 14 5 -3 11 -1 15 5 9 14 15 12 15 -5z
m-741 -12 c-1 -10 -4 -31 -8 -48 l-7 -30 -7 38 c-5 20 -5 42 -2 47 10 16 25
11 24 -7z m-109 -8 c0 -8 -7 -15 -15 -15 -26 0 -18 20 13 29 1 1 2 -6 2 -14z
m-360 -5 c0 -5 -4 -10 -10 -10 -5 0 -10 5 -10 10 0 6 5 10 10 10 6 0 10 -4 10
-10z m-149 -31 c8 -15 8 -24 0 -32 -7 -7 -12 -5 -16 6 -3 9 -7 24 -10 32 -7
23 13 18 26 -6z m1059 -39 c0 -5 -7 -10 -16 -10 -8 0 -12 5 -9 10 3 6 10 10
16 10 5 0 9 -4 9 -10z m260 -10 c0 -22 -1 -23 -24 -14 -12 5 -13 9 -3 20 17
19 27 17 27 -6z m-1180 -32 c0 -6 -7 -5 -15 2 -8 7 -15 17 -15 22 0 6 7 5 15
-2 8 -7 15 -17 15 -22z m970 -8 c4 0 10 7 14 15 8 22 26 18 26 -5 0 -11 6 -20
12 -20 7 0 3 -7 -8 -14 -12 -8 -31 -12 -42 -9 -17 4 -22 12 -21 37 1 17 3 23
6 14 2 -10 8 -18 13 -18z m161 -85 c-25 -29 -32 -33 -37 -20 -4 10 1 22 15 31
15 11 21 26 22 52 l0 37 16 -32 c16 -31 15 -33 -16 -68z m69 56 c0 -17 -18
-21 -24 -6 -3 9 0 15 9 15 8 0 15 -4 15 -9z m-434 -59 c22 -6 49 -21 59 -32
14 -16 26 -19 56 -14 42 7 48 -1 29 -37 -14 -26 -34 -24 -56 6 -13 18 -25 24
-40 21 -15 -4 -25 1 -34 19 -7 14 -21 25 -31 25 -10 0 -31 12 -46 26 -26 25
-27 25 -3 12 14 -8 43 -19 66 -26z m-816 13 c7 -8 8 -15 2 -15 -5 0 -15 7 -22
15 -7 8 -8 15 -2 15 5 0 15 -7 22 -15z m940 8 c0 -9 -52 -35 -58 -29 -2 3 9
11 25 20 33 18 33 18 33 9z m-787 -104 c8 -30 -17 -22 -52 17 -21 22 -30 41
-27 51 6 13 13 11 40 -16 19 -18 36 -42 39 -52z m-53 -74 c0 -8 -6 -15 -14
-15 -8 0 -16 7 -20 15 -4 10 1 15 14 15 11 0 20 -7 20 -15z m663 9 c10 -4 12
-14 8 -36 -8 -37 -31 -50 -31 -18 0 12 -5 30 -10 41 -11 20 2 25 33 13z m118
-35 c8 -15 6 -19 -9 -19 -25 0 -57 24 -49 38 10 15 46 3 58 -19z m159 -19 c0
-10 -4 -21 -10 -25 -5 -3 -8 7 -7 24 2 31 17 32 17 1z m-5385 -10 c3 -5 1 -10
-4 -10 -6 0 -11 5 -11 10 0 6 2 10 4 10 3 0 8 -4 11 -10z m4455 -22 c0 -21 -3
-29 -10 -22 -5 5 -7 19 -4 32 9 31 14 27 14 -10z m90 17 c0 -8 -4 -15 -9 -15
-5 0 -11 7 -15 15 -3 9 0 15 9 15 8 0 15 -7 15 -15z m-4563 -40 c-4 -8 -11
-15 -17 -15 -7 0 -7 6 0 21 13 23 26 19 17 -6z m4470 -82 c-2 -16 -4 -5 -4 22
0 28 2 40 4 28 2 -13 2 -35 0 -50z m651 61 c32 -9 27 -31 -9 -36 -21 -3 -33 0
-39 12 -15 28 2 36 48 24z m-5038 -18 c0 -8 -7 -16 -15 -20 -13 -4 -14 -2 -5
14 13 23 20 26 20 6z m4504 -25 c-9 -10 -26 18 -18 30 5 9 9 8 14 -7 4 -10 6
-21 4 -23z m-4404 -6 c-7 -8 -17 -15 -23 -15 -6 0 -2 7 9 15 25 19 30 19 14 0z
m5044 -66 c-5 -8 -10 -6 -16 5 -5 9 -6 21 -2 27 5 8 10 6 16 -5 5 -9 6 -21 2
-27z m60 16 c-4 -8 -10 -15 -15 -15 -4 0 -6 7 -3 15 4 8 10 15 15 15 4 0 6 -7
3 -15z m-770 -101 c12 -12 38 -42 58 -67 25 -30 52 -50 80 -59 42 -14 63 -38
34 -38 -9 0 -19 -7 -22 -15 -8 -20 -86 -20 -128 0 -53 25 -135 181 -136 259
l0 29 47 -44 c25 -24 56 -54 67 -65z m456 94 c0 -6 12 -8 29 -5 21 5 31 2 35
-9 9 -24 -2 -34 -40 -34 -27 0 -37 5 -43 23 -8 20 -9 20 -16 -11 l-7 -34 -20
32 c-14 23 -16 35 -8 40 18 11 70 10 70 -2z m-270 -81 c0 -9 -13 -3 -56 30
-17 12 -35 20 -40 15 -4 -4 -2 1 5 10 12 16 16 15 52 -15 21 -17 39 -36 39
-40z m460 34 c0 -16 -6 -31 -14 -34 -11 -5 -12 1 -3 29 13 42 17 43 17 5z
m-250 -25 c0 -2 -8 -10 -17 -17 -16 -13 -17 -12 -4 4 13 16 21 21 21 13z
m-4605 -16 c3 -5 1 -10 -4 -10 -6 0 -11 5 -11 10 0 6 2 10 4 10 3 0 8 -4 11
-10z m4430 -8 c-3 -3 -11 0 -18 7 -9 10 -8 11 6 5 10 -3 15 -9 12 -12z m621
-14 c-3 -13 -6 -26 -6 -30 0 -5 -8 -8 -17 -8 -16 0 -16 1 -1 17 16 15 16 17 0
29 -15 12 -15 13 7 14 19 0 22 -4 17 -22z m-548 -37 c5 -31 -14 -66 -44 -80
-32 -14 -39 3 -8 20 23 12 25 18 20 52 -6 33 -4 38 11 35 10 -2 20 -14 21 -27z
m102 -11 c-20 -13 -53 -13 -45 0 3 6 18 10 33 10 21 0 24 -2 12 -10z m340 -20
c0 -5 -8 -10 -17 -10 -15 0 -16 2 -3 10 19 12 20 12 20 0z m-184 -28 c-18 -16
-18 -16 -6 6 6 13 14 21 18 18 3 -4 -2 -14 -12 -24z m84 8 c0 -5 -5 -10 -11
-10 -5 0 -7 5 -4 10 3 6 8 10 11 10 2 0 4 -4 4 -10z m-160 -44 c-14 -13 -27
-21 -30 -19 -4 4 40 42 50 43 2 0 -7 -11 -20 -24z m-190 -12 c0 -8 -43 -43
-52 -44 -10 0 -10 34 -1 43 8 9 53 9 53 1z m140 -24 c0 -5 -4 -10 -9 -10 -6 0
-13 5 -16 10 -3 6 1 10 9 10 9 0 16 -4 16 -10z m185 0 c-3 -5 -11 -10 -16 -10
-6 0 -7 5 -4 10 3 6 11 10 16 10 6 0 7 -4 4 -10z m-4435 -20 c0 -5 -4 -10 -10
-10 -5 0 -10 5 -10 10 0 6 5 10 10 10 6 0 10 -4 10 -10z m4968 -24 c3 -12 -1
-17 -10 -14 -7 3 -15 13 -16 22 -3 12 1 17 10 14 7 -3 15 -13 16 -22z m-773
-6 c-10 -11 -21 -17 -24 -14 -3 3 3 12 13 20 28 20 32 17 11 -6z m-4144 -43
c-13 -13 -26 -3 -16 12 3 6 11 8 17 5 6 -4 6 -10 -1 -17z m4089 -11 c0 -3 -4
-8 -10 -11 -5 -3 -10 -1 -10 4 0 6 5 11 10 11 6 0 10 -2 10 -4z m-4054 -55
c-3 -5 -15 -11 -26 -14 -17 -4 -20 0 -20 23 0 16 6 30 13 33 14 5 41 -29 33
-42z m4335 29 c10 -6 19 -17 19 -25 0 -7 9 -17 20 -20 11 -3 20 -11 20 -16 0
-22 -42 2 -70 41 -23 32 -20 36 11 20z m-348 -46 c-8 -14 -25 -30 -37 -36 -17
-9 -16 -6 7 21 15 18 27 37 27 42 0 6 4 7 10 4 6 -4 3 -16 -7 -31z m651 17
c16 -6 17 -9 5 -13 -21 -8 -70 2 -63 13 6 11 31 11 58 0z m-4547 -38 c-3 -34
-27 -44 -27 -10 0 13 3 27 7 30 14 14 22 6 20 -20z m3656 21 c11 -11 -3 -24
-18 -18 -8 4 -12 10 -9 15 6 11 18 12 27 3z m-3567 -120 c-15 -14 -16 -14 -16
5 0 12 5 21 10 21 6 0 11 8 11 18 1 11 3 9 6 -6 2 -12 -3 -29 -11 -38z m3412
34 c18 -18 14 -38 -7 -38 -23 0 -35 15 -27 35 7 18 18 19 34 3z m67 2 c-3 -5
-13 -10 -21 -10 -8 0 -12 5 -9 10 3 6 13 10 21 10 8 0 12 -4 9 -10z m1152 -10
c60 -29 66 -44 14 -37 -45 6 -71 21 -71 43 0 19 9 18 57 -6z m-977 -25 c0 -10
-50 -45 -64 -45 -3 0 -3 7 -1 15 3 8 7 22 10 30 5 17 55 17 55 0z m-70 -5 c0
-5 -5 -10 -11 -10 -5 0 -7 5 -4 10 3 6 8 10 11 10 2 0 4 -4 4 -10z m-3433 -16
c10 -26 -14 -41 -35 -21 -15 16 -15 19 -2 27 21 14 30 12 37 -6z m-165 -36
c-7 -7 -12 -8 -12 -2 0 14 12 26 19 19 2 -3 -1 -11 -7 -17z m4843 -19 c28 -16
46 -29 40 -29 -5 -1 -29 -5 -53 -9 -38 -8 -45 -6 -57 13 -7 11 -16 32 -20 44
-6 22 -5 23 17 17 12 -4 46 -21 73 -36z m-4536 14 c-11 -2 -15 -12 -12 -27 6
-31 -16 -45 -34 -21 -25 35 -11 52 47 52 12 1 11 0 -1 -4z m2992 -13 c-26 -22
-37 -25 -46 -10 -11 18 5 30 38 30 l32 -1 -24 -19z m2206 14 c-3 -3 -12 -4
-19 -1 -8 3 -5 6 6 6 11 1 17 -2 13 -5z m-1967 -29 c-15 -18 -46 -20 -53 -2
-4 7 -6 6 -6 -4 -1 -20 -28 -32 -37 -17 -11 17 25 38 56 31 16 -3 31 0 35 7 4
6 9 9 12 6 3 -3 0 -12 -7 -21z m3440 5 c0 -5 -2 -10 -4 -10 -3 0 -8 5 -11 10
-3 6 -1 10 4 10 6 0 11 -4 11 -10z m-3845 -31 c-18 -7 -17 -8 5 -9 l25 0 -25
-20 -25 -19 -7 32 c-8 41 -2 50 25 35 21 -11 21 -11 2 -19z m1566 17 l33 -14
-42 -13 c-46 -14 -70 -4 -59 25 8 20 25 20 68 2z m-1315 -62 c-4 -9 -9 -15
-11 -12 -3 3 -3 13 1 22 4 9 9 15 11 12 3 -3 3 -13 -1 -22z m-40 -40 c-4 -9
-9 -15 -11 -12 -3 3 -3 13 1 22 4 9 9 15 11 12 3 -3 3 -13 -1 -22z m1728 5 c8
-9 1 -10 -28 -6 -22 4 -44 12 -50 18 -8 9 -1 10 28 6 22 -4 44 -12 50 -18z
m-4509 -3 c14 -8 22 -16 17 -20 -5 -3 -12 -2 -16 2 -4 4 -13 7 -18 7 -6 0 -13
6 -15 13 -6 15 -1 15 32 -2z m2434 3 c40 -14 40 -29 -1 -29 -39 0 -63 13 -54
29 9 14 15 14 55 0z m319 -11 c-3 -7 -12 -14 -21 -16 -12 -2 -15 1 -11 12 7
19 38 22 32 4z m-2953 -8 c-3 -5 -14 -10 -23 -10 -15 0 -15 2 -2 10 20 13 33
13 25 0z m308 -16 c13 -4 13 -11 5 -37 -10 -27 -12 -29 -19 -11 -8 21 -11 54
-5 54 2 0 11 -3 19 -6z m6257 2 c0 -2 -9 -6 -20 -9 -11 -3 -20 -1 -20 4 0 5 9
9 20 9 11 0 20 -2 20 -4z m-6139 -76 c-6 -22 -15 -40 -19 -40 -13 0 -12 84 1
92 22 14 31 -10 18 -52z m2423 35 c-40 -32 -54 -37 -54 -20 0 9 15 22 33 30
38 16 48 11 21 -10z m-543 -8 c-10 -9 -11 -8 -5 6 3 10 9 15 12 12 3 -3 0 -11
-7 -18z m4004 5 c-3 -3 -11 0 -18 7 -9 10 -8 11 6 5 10 -3 15 -9 12 -12z
m-5761 2 c12 -5 13 -9 3 -25 -6 -10 -15 -19 -20 -19 -4 0 -6 4 -2 9 3 5 -4 12
-15 16 -11 4 -18 11 -15 16 7 10 26 12 49 3z m1578 -26 c-9 -9 -12 -7 -12 12
0 19 3 21 12 12 9 -9 9 -15 0 -24z m362 11 c-3 -5 -11 -9 -19 -9 -7 0 -15 -5
-17 -12 -5 -15 -28 -1 -28 17 0 7 8 15 18 17 24 6 53 -3 46 -13z m-557 -31
c-3 -8 -6 -5 -6 6 -1 11 2 17 5 13 3 -3 4 -12 1 -19z m564 -15 c-8 -15 -10
-15 -11 -2 0 17 10 32 18 25 2 -3 -1 -13 -7 -23z m-153 -6 c3 -15 -2 -18 -25
-15 -17 2 -29 10 -31 21 -3 15 2 18 25 15 17 -2 29 -10 31 -21z m372 13 c0 -5
-5 -10 -12 -10 -6 0 -20 -7 -30 -17 -22 -20 -24 -1 -2 21 17 18 44 21 44 6z
m-539 -28 c19 -22 14 -42 -11 -42 -19 0 -53 43 -43 54 12 12 39 6 54 -12z
m-1236 -2 c3 -5 1 -10 -4 -10 -19 0 -12 -17 9 -23 18 -5 30 -37 13 -37 -15 0
-53 45 -53 62 0 19 25 25 35 8z m1040 -20 c25 -27 9 -45 -28 -31 -28 11 -36
36 -14 44 20 9 23 8 42 -13z m-885 -20 c9 -17 8 -20 -9 -20 -22 0 -35 15 -26
30 10 16 23 12 35 -10z m4950 16 c0 -11 -19 -15 -25 -6 -3 5 1 10 9 10 9 0 16
-2 16 -4z m-180 -22 c0 -2 -7 -4 -15 -4 -8 0 -15 4 -15 10 0 5 7 7 15 4 8 -4
15 -8 15 -10z m-4474 -51 c-10 -10 -45 28 -39 43 4 10 10 8 25 -12 11 -14 18
-28 14 -31z m951 25 c-3 -7 -5 -2 -5 12 0 14 2 19 5 13 2 -7 2 -19 0 -25z
m3293 23 c0 -13 -27 -21 -45 -15 -25 10 -17 24 15 24 17 0 30 -4 30 -9z
m-4080 -33 c0 -17 -3 -18 -15 -8 -8 7 -15 19 -15 26 0 8 6 11 15 8 8 -4 15
-15 15 -26z m160 -3 c-7 -8 -16 -15 -21 -15 -13 0 -11 24 3 38 18 18 35 -3 18
-23z m-470 10 c0 -9 -6 -12 -15 -9 -8 4 -15 10 -15 15 0 5 7 9 15 9 8 0 15 -7
15 -15z m-114 -47 c-19 -13 -26 -9 -26 15 0 34 11 40 25 14 8 -15 8 -24 1 -29z
m1369 42 c-3 -5 -10 -10 -16 -10 -5 0 -9 5 -9 10 0 6 7 10 16 10 8 0 12 -4 9
-10z m-35 -4 c0 -3 -4 -8 -10 -11 -5 -3 -10 -1 -10 4 0 6 5 11 10 11 6 0 10
-2 10 -4z m-300 -56 c0 -5 -5 -10 -11 -10 -5 0 -7 5 -4 10 3 6 8 10 11 10 2 0
4 -4 4 -10z m-890 -15 c0 -8 -4 -15 -10 -15 -5 0 -7 7 -4 15 4 8 8 15 10 15 2
0 4 -7 4 -15z m280 -10 c0 -8 -4 -15 -10 -15 -5 0 -7 7 -4 15 4 8 8 15 10 15
2 0 4 -7 4 -15z m390 -9 c0 -2 -8 -10 -17 -17 -16 -13 -17 -12 -4 4 13 16 21
21 21 13z m-142 -18 c-3 -7 -13 -15 -23 -16 -15 -4 -16 -2 -4 12 17 19 32 21
27 4z m-368 -2 c0 -2 -7 -6 -15 -10 -8 -3 -15 -1 -15 4 0 6 7 10 15 10 8 0 15
-2 15 -4z"/>
<path d="M6611 2814 c0 -11 3 -14 6 -6 3 7 2 16 -1 19 -3 4 -6 -2 -5 -13z"/>
<path d="M9920 7984 c0 -8 5 -12 10 -9 6 3 10 10 10 16 0 5 -4 9 -10 9 -5 0
-10 -7 -10 -16z"/>
<path d="M10084 7925 c11 -8 23 -21 28 -27 5 -9 8 -10 8 -1 0 15 -28 43 -43
43 -7 0 -3 -7 7 -15z"/>
<path d="M10101 7864 c0 -11 3 -14 6 -6 3 7 2 16 -1 19 -3 4 -6 -2 -5 -13z"/>
<path d="M10709 7013 c-13 -16 -12 -17 4 -4 9 7 17 15 17 17 0 8 -8 3 -21 -13z"/>
<path d="M11400 6915 c0 -5 5 -17 10 -25 5 -8 10 -10 10 -5 0 6 -5 17 -10 25
-5 8 -10 11 -10 5z"/>
<path d="M11450 6821 c0 -5 7 -12 16 -15 14 -5 15 -4 4 9 -14 17 -20 19 -20 6z"/>
<path d="M11994 5859 c-9 -19 -14 -43 -10 -59 3 -16 -3 -48 -13 -75 -18 -48
-16 -65 17 -115 2 -3 10 4 18 15 13 17 16 18 24 5 5 -8 10 -17 10 -20 0 -3 9
-11 19 -17 18 -11 18 -11 3 20 -30 58 -7 204 35 230 15 9 17 37 3 37 -5 0 -10
-7 -10 -15 0 -20 -10 -19 -40 5 -33 26 -37 25 -56 -11z m36 -180 c0 -17 -4
-28 -10 -24 -5 3 -10 17 -10 31 0 13 5 24 10 24 6 0 10 -14 10 -31z"/>
<path d="M11271 5843 c-6 -21 -11 -46 -11 -55 0 -9 -5 -29 -12 -43 -8 -17 -8
-29 -2 -33 26 -18 38 -133 35 -347 0 -66 4 -138 9 -160 6 -22 24 -118 40 -214
38 -221 61 -295 112 -357 22 -27 49 -66 60 -89 37 -72 189 -244 240 -271 15
-7 37 -13 50 -12 13 0 41 -2 63 -6 34 -5 37 -5 18 5 -31 16 -29 27 2 21 14 -2
30 -12 35 -22 11 -20 60 -40 98 -40 36 0 131 57 137 83 3 12 14 60 25 107 25
106 44 302 37 389 -2 36 2 117 10 179 8 62 12 119 9 127 -3 8 -20 22 -38 31
-45 21 -76 84 -60 119 21 45 14 116 -15 176 -35 71 -73 102 -73 60 0 -11 14
-29 30 -41 55 -39 77 -133 44 -190 -12 -19 -14 -36 -9 -56 5 -16 8 -32 7 -36
-1 -5 1 -7 6 -6 4 2 29 -12 55 -31 40 -27 48 -37 42 -55 -17 -58 -26 -159 -20
-231 3 -53 0 -109 -10 -165 -18 -105 -19 -121 -4 -100 8 11 9 7 5 -19 -3 -18
-6 -42 -6 -52 0 -11 -4 -19 -10 -19 -5 0 -10 14 -10 30 0 41 -11 37 -34 -12
-16 -35 -17 -46 -7 -75 8 -21 10 -50 6 -71 -7 -40 -40 -92 -57 -92 -6 0 -19
-6 -27 -14 -38 -34 -97 65 -69 117 5 10 5 17 0 17 -5 0 -7 20 -5 44 5 43 -12
87 -50 129 -7 7 -17 22 -24 32 -6 11 -16 19 -22 17 -7 -1 -34 21 -62 50 l-49
51 14 -40 c14 -40 32 -70 101 -167 37 -54 39 -77 3 -32 -59 70 -70 79 -79 65
-15 -23 -11 -34 26 -72 19 -20 35 -46 35 -59 0 -13 9 -38 21 -57 16 -27 18
-36 7 -42 -20 -13 -26 -11 -38 11 -6 11 -17 20 -25 20 -8 0 -15 9 -15 19 0 20
-32 82 -58 113 -10 12 -13 30 -9 57 2 21 1 43 -5 49 -5 5 -10 16 -11 23 -2 8
-17 35 -35 61 -17 26 -32 50 -32 55 -1 13 -37 53 -48 53 -15 0 -25 31 -27 86
-1 40 -10 66 -38 114 -20 34 -37 69 -36 78 0 15 2 14 12 -2 18 -29 46 -56 58
-56 5 0 8 4 5 9 -3 5 -12 37 -20 72 -7 35 -17 72 -21 82 -6 15 -4 17 19 11 31
-7 35 10 9 38 -14 15 -17 36 -16 98 1 43 -2 92 -6 108 -6 19 -5 34 1 40 10 10
4 52 -18 125 -3 9 -1 17 5 17 6 0 15 -19 21 -42 7 -24 16 -60 22 -80 6 -20 8
-67 6 -103 -4 -50 -2 -69 9 -80 13 -13 12 -15 -3 -15 -22 0 -12 -11 13 -14 11
-2 19 -13 21 -29 2 -15 10 -27 18 -27 15 0 20 -26 5 -32 -5 -2 -5 -27 1 -60 9
-51 13 -58 34 -58 13 0 40 16 64 38 43 42 50 74 29 129 -6 15 -17 50 -24 76
-13 48 -13 49 5 32 11 -10 26 -38 35 -64 9 -25 22 -55 30 -65 17 -22 17 -19
18 78 0 30 8 45 33 70 42 41 77 115 62 133 -7 8 -6 27 2 60 24 97 24 113 1
137 -12 12 -30 48 -41 80 -34 96 -61 122 -76 74 -10 -32 -63 -96 -83 -101 -9
-2 -34 3 -55 10 -21 7 -55 15 -75 18 -20 2 -56 10 -81 18 -25 8 -55 11 -65 7
-11 -4 -24 -5 -29 -2 -4 2 -26 -1 -47 -8 -33 -11 -38 -16 -33 -37 6 -22 3 -23
-39 -23 -25 0 -48 4 -51 8 -9 16 15 82 29 82 17 0 20 35 5 45 -17 10 -11 23
13 28 19 4 19 4 -5 6 -23 1 -29 -4 -37 -36z m329 -114 c44 -10 90 -47 90 -72
0 -7 -7 -25 -15 -41 -8 -15 -15 -37 -15 -47 0 -10 -11 -31 -25 -46 -24 -27
-25 -28 -37 -8 -19 30 -64 139 -72 172 -4 15 -9 37 -13 47 -4 16 -2 18 18 12
13 -4 44 -12 69 -17z m258 -54 c-11 -12 -36 7 -41 32 l-5 25 26 -26 c14 -14
23 -28 20 -31z m-380 0 c20 -55 29 -340 12 -418 -9 -45 -15 -57 -28 -55 -12 2
-18 16 -20 48 -2 25 -8 48 -15 52 -7 4 -5 29 8 86 19 87 18 240 -4 279 -6 12
-8 29 -5 38 11 27 36 12 52 -30z m285 -25 c-3 -14 -10 -34 -16 -45 -10 -19
-10 -19 -18 0 -13 34 -10 67 8 81 23 16 35 -1 26 -36z m141 -64 c8 -50 -2 -79
-41 -124 -39 -46 -88 -53 -128 -17 -29 25 -30 26 -10 41 19 14 19 15 -3 20
-12 4 -23 11 -23 18 -3 22 3 41 14 49 8 6 6 7 -5 3 -24 -7 -30 7 -13 30 13 18
14 18 23 -6 5 -14 7 -30 5 -37 -3 -9 6 -11 32 -9 26 2 45 13 66 35 16 18 27
37 24 42 -4 5 1 9 9 9 9 0 16 6 16 13 1 27 28 -26 34 -67z m-504 -12 c0 -14 7
-27 15 -30 11 -5 15 -22 15 -69 0 -34 -7 -82 -15 -105 -8 -23 -15 -61 -15 -83
0 -58 -7 -42 -14 33 -3 36 -10 97 -16 135 -5 44 -5 71 1 73 5 2 9 22 9 43 0
24 4 38 10 34 6 -3 10 -17 10 -31z m-70 -166 c1 -7 7 -49 15 -93 10 -57 11
-83 3 -92 -12 -15 6 -43 28 -43 7 0 18 -9 24 -20 11 -21 2 -48 -27 -81 -12
-14 -10 -21 14 -50 15 -19 32 -37 37 -41 5 -4 2 -17 -7 -32 -23 -35 -21 -53 8
-72 14 -9 23 -19 20 -22 -2 -3 0 -11 7 -19 8 -10 8 -20 -3 -39 -16 -31 -1 -60
29 -56 30 4 49 -34 28 -57 -18 -20 -21 -47 -5 -56 6 -4 13 2 16 14 3 12 9 21
14 21 5 0 9 9 9 19 0 11 4 22 9 25 11 7 57 -42 48 -51 -4 -3 -14 2 -22 13 -14
19 -14 18 -15 -3 0 -12 5 -25 10 -28 16 -10 11 -47 -10 -83 -27 -44 -14 -63
40 -58 56 5 81 -19 84 -80 3 -56 10 -74 31 -74 11 0 13 8 9 30 -9 43 2 37 26
-14 24 -54 25 -66 4 -66 -22 0 -205 188 -229 236 -11 21 -38 66 -60 99 -58 88
-62 97 -79 162 -36 141 -60 308 -60 416 1 26 -2 47 -5 47 -3 0 -7 36 -9 80 -2
52 0 80 7 80 6 0 11 -6 11 -12z m138 -339 c12 -22 22 -48 22 -58 0 -9 7 -26
15 -37 8 -12 24 -47 36 -78 18 -50 19 -63 9 -106 -7 -28 -15 -50 -18 -50 -14
1 -43 80 -40 107 2 18 -1 27 -9 26 -8 -2 -13 7 -13 22 0 16 -6 25 -16 25 -12
0 -14 8 -8 45 4 27 2 45 -3 45 -12 0 -33 45 -33 71 0 11 5 17 10 14 6 -3 10
-1 10 4 0 23 17 9 38 -30z m192 -460 c0 -20 -19 -7 -34 23 -9 17 -16 34 -16
37 1 10 50 -49 50 -60z m-53 -11 c-3 -7 -5 -2 -5 12 0 14 2 19 5 13 2 -7 2
-19 0 -25z m43 -58 c0 -5 -2 -10 -4 -10 -3 0 -8 5 -11 10 -3 6 -1 10 4 10 6 0
11 -4 11 -10z"/>
<path d="M12005 5570 c-3 -5 -2 -10 4 -10 5 0 13 5 16 10 3 6 2 10 -4 10 -5 0
-13 -4 -16 -10z"/>
<path d="M7625 5269 c-4 -6 -5 -12 -2 -15 2 -3 7 2 10 11 7 17 1 20 -8 4z"/>
<path d="M11908 5223 c-16 -4 -16 -7 -3 -32 12 -25 12 -31 0 -47 -18 -24 -19
-34 -2 -34 7 0 18 9 25 20 7 11 18 20 26 20 23 0 27 30 8 55 -17 25 -23 26
-54 18z"/>
<path d="M12075 5220 c3 -5 8 -10 11 -10 2 0 4 5 4 10 0 6 -5 10 -11 10 -5 0
-7 -4 -4 -10z"/>
<path d="M12060 5046 c0 -7 -7 -19 -14 -26 -22 -18 -40 -80 -28 -92 12 -12 42
11 42 31 0 6 5 11 10 11 6 0 10 20 10 45 0 25 -4 45 -10 45 -5 0 -10 -6 -10
-14z"/>
<path d="M11670 4947 l-35 -22 29 -3 c16 -2 32 2 37 10 6 8 9 9 9 1 0 -6 8 -9
18 -6 11 3 28 -6 43 -21 13 -14 39 -29 57 -32 36 -7 57 -35 49 -66 -5 -18 -4
-18 16 -5 26 17 33 58 16 99 -26 63 -169 90 -239 45z"/>
<path d="M12060 4769 c0 -5 5 -7 10 -4 6 3 10 8 10 11 0 2 -4 4 -10 4 -5 0
-10 -5 -10 -11z"/>
<path d="M12092 4755 c0 -16 4 -43 8 -60 8 -30 8 -30 9 -3 0 14 3 32 6 40 3 7
-1 22 -9 33 -15 19 -15 19 -14 -10z"/>
<path d="M11820 4760 c0 -5 14 -10 30 -10 17 0 30 5 30 10 0 6 -13 10 -30 10
-16 0 -30 -4 -30 -10z"/>
<path d="M12000 4505 c0 -13 6 -28 13 -32 16 -10 37 -49 37 -68 0 -17 25 -20
35 -4 13 19 -5 76 -32 103 -33 33 -53 33 -53 1z"/>
<path d="M1400 2093 c0 -5 9 -14 20 -21 11 -7 20 -8 20 -2 0 5 -9 14 -20 20
-11 6 -20 7 -20 3z"/>
<path d="M2941 1359 c9 -41 8 -65 -7 -103 -11 -29 13 -17 25 12 13 30 2 105
-17 124 -7 7 -7 -4 -1 -33z"/>
<path d="M2896 1061 c-3 -5 1 -11 9 -14 9 -4 12 -1 8 9 -6 16 -10 17 -17 5z"/>
<path d="M3770 800 c0 -6 7 -10 15 -10 8 0 15 2 15 4 0 2 -7 6 -15 10 -8 3
-15 1 -15 -4z"/>
</g>
</svg>
