<?xml version="1.0" standalone="no"?>
<!DOCTYPE svg PUBLIC "-//W3C//DTD SVG 20010904//EN"
 "http://www.w3.org/TR/2001/REC-SVG-20010904/DTD/svg10.dtd">
<svg version="1.0" xmlns="http://www.w3.org/2000/svg"
 width="800.000000pt" height="1140.000000pt" viewBox="0 0 800.000000 1140.000000"
 preserveAspectRatio="xMidYMid meet">

<g transform="translate(0.000000,1140.000000) scale(0.100000,-0.100000)"
fill="#000000" stroke="none">
<path d="M129 11224 c-16 -17 -23 -37 -23 -62 0 -29 299 -631 1372 -2764 755
-1499 1372 -2729 1372 -2733 0 -3 -337 -386 -750 -851 -711 -801 -750 -847
-750 -883 0 -64 60 -106 118 -82 15 7 333 358 747 825 396 447 723 810 727
807 4 -3 225 -440 492 -971 l485 -965 -363 -717 -362 -717 -117 235 c-64 129
-117 236 -117 239 0 3 56 5 125 5 120 0 127 1 150 25 33 32 33 84 1 122 l-24
28 -415 0 -415 0 -25 -23 c-14 -13 -27 -34 -29 -47 -6 -27 14 -78 34 -91 7 -5
99 -11 205 -14 l191 -5 168 -337 168 -336 -58 -124 c-107 -226 -220 -391 -378
-549 -150 -150 -306 -250 -468 -300 -89 -28 -245 -32 -325 -10 -157 44 -309
171 -382 321 -74 150 -88 285 -42 404 17 46 63 106 81 106 4 0 8 -18 8 -39 0
-57 39 -101 89 -101 91 0 137 141 82 252 -34 70 -71 93 -153 93 -58 0 -71 -4
-110 -31 -176 -128 -229 -452 -119 -728 100 -250 305 -432 548 -486 72 -17
234 -13 310 6 343 86 703 407 931 833 l50 94 -21 19 -22 19 22 -10 c32 -16 41
-14 49 11 5 18 87 -138 390 -743 290 -581 390 -772 414 -792 44 -38 116 -38
160 0 24 20 119 201 389 741 l358 716 28 -50 c205 -361 467 -632 738 -764 139
-67 235 -91 367 -91 156 1 272 37 407 129 244 166 388 521 328 806 -29 136
-115 270 -200 310 -47 23 -120 21 -161 -5 -69 -42 -108 -150 -84 -233 36 -129
173 -130 187 -2 3 25 9 46 14 46 17 0 67 -74 83 -122 20 -64 21 -186 1 -262
-40 -154 -163 -315 -296 -389 -77 -43 -199 -77 -276 -77 -137 0 -315 65 -470
172 -98 67 -259 227 -345 341 -84 114 -183 280 -204 343 l-16 50 186 372 c102
205 186 379 186 387 0 12 23 15 129 15 113 0 131 2 154 20 13 11 28 31 31 45
10 38 -19 91 -56 104 -20 7 -167 11 -410 11 -403 0 -433 -3 -457 -48 -19 -36
-13 -77 15 -106 26 -26 29 -26 165 -26 87 0 139 -4 139 -10 0 -23 -232 -472
-240 -464 -4 5 -168 330 -364 722 l-357 713 489 970 489 970 722 -814 c398
-448 734 -820 747 -826 40 -18 63 -13 95 18 42 43 38 91 -13 145 -109 116
-1454 1639 -1456 1649 -1 7 612 1234 1364 2727 1059 2105 1367 2726 1371 2762
5 41 2 50 -20 72 l-26 26 -3864 0 -3864 0 -24 -26z m7519 -153 c-6 -15 -3622
-4086 -3630 -4086 -9 0 -3628 4077 -3628 4088 0 4 1634 7 3631 7 2036 0 3629
-4 3627 -9z m-292 -688 c-241 -481 -2298 -4568 -2300 -4570 -2 -2 -208 229
-460 512 l-457 515 38 45 c80 92 3268 3684 3271 3685 1 0 -40 -84 -92 -187z
m-5109 -1680 c906 -1022 1648 -1860 1647 -1863 -3 -15 -910 -1028 -915 -1022
-4 4 -449 887 -989 1962 -540 1075 -1076 2141 -1191 2368 -115 226 -207 412
-205 412 3 0 747 -836 1653 -1857z m2251 -2538 l470 -529 -115 -231 c-63 -126
-277 -551 -475 -943 l-361 -714 -473 942 c-405 805 -472 945 -461 959 35 50
932 1051 938 1049 4 -2 219 -241 477 -533z m-113 -3545 l360 -720 -360 -720
c-198 -396 -363 -720 -366 -720 -7 0 -719 1436 -719 1452 0 13 713 1428 720
1428 3 0 167 -324 365 -720z"/>
</g>
</svg>
